<svg width="56" height="53" viewBox="0 0 56 53" fill="none" xmlns="http://www.w3.org/2000/svg">
<g clip-path="url(#clip0_170_5295)">
<path d="M24.403 5.57294C24.403 6.66118 23.8427 7.2053 22.7222 7.2053H20.1633C19.2917 7.16313 18.8369 6.69095 18.7988 5.78877V1.76367H23.8423V2.85646H19.9201V3.94553H22.7222C23.8435 3.94223 24.4038 4.48469 24.403 5.57294ZM23.2866 5.57294C23.2866 5.21074 23.0993 5.0284 22.7259 5.0284H19.9201V6.11747H22.7222C23.0943 6.11747 23.2829 5.93637 23.2829 5.57294H23.2866Z" fill="white" style="fill:white;fill-opacity:1;"/>
<path d="M29.4478 1.76367L26.0851 5.53697V1.76367H24.9688V5.65976C24.9688 6.55699 25.3479 7.06307 26.1062 7.17801L29.4553 3.42581V7.2053H30.5716V1.76367H29.4478Z" fill="white" style="fill:white;fill-opacity:1;"/>
<path d="M36.7318 3.3963C36.7318 2.30723 36.2493 1.7627 35.2842 1.7627H31.1289V2.85673H35.051C35.4248 2.85673 35.6117 3.03824 35.6117 3.40126C35.6117 3.76429 35.4248 3.9458 35.051 3.9458H33.3703V5.03363H35.051C35.4248 5.03363 35.6117 5.21514 35.6117 5.57816C35.6117 5.94119 35.4248 6.1227 35.051 6.1227H31.1289V6.19588C31.2728 6.83841 31.7111 7.17662 32.4437 7.21053H35.0486C36.1691 7.21053 36.7293 6.72677 36.7293 5.75926C36.7393 5.31395 36.6264 4.87449 36.4031 4.48909C36.611 4.16196 36.7247 3.78385 36.7318 3.3963Z" fill="white" style="fill:white;fill-opacity:1;"/>
<path d="M55.2252 6.11747H51.3018C50.9281 6.11747 50.7412 5.93596 50.7412 5.57294V3.39604C50.7412 3.03301 50.9281 2.8515 51.3018 2.8515H55.2252V1.76367H51.3018C50.1813 1.76367 49.6211 2.30821 49.6211 3.39728V5.57294C49.6211 6.66118 50.1813 7.2053 51.3018 7.2053H55.2252V6.11747Z" fill="white" style="fill:white;fill-opacity:1;"/>
<path d="M24.403 10.8956C24.403 9.81481 23.8427 9.27441 22.7222 9.27441H21.0402C19.9197 9.27441 19.3595 9.81481 19.3595 10.8956V13.6878H18.7988V15.8498H19.9152V14.7644H23.8386V15.846H24.9549V13.689H24.3943L24.403 10.8956ZM20.4796 13.6878V10.8956C20.4796 10.5351 20.6665 10.3548 21.0402 10.3548H22.7222C23.0943 10.3548 23.2829 10.5347 23.2829 10.8956V13.6878H20.4796Z" fill="white" style="fill:white;fill-opacity:1;"/>
<path d="M43.8094 9.36523H41.0061C40.2155 9.36523 39.6553 9.90563 39.3253 10.9864C39.2699 11.347 38.8978 12.6081 38.209 14.7697H39.3489L40.4504 10.9864C40.5504 10.6259 40.7373 10.446 41.011 10.4469H42.6918V14.7647H43.8081L43.8094 9.36523Z" fill="white" style="fill:white;fill-opacity:1;"/>
<path d="M50.0878 10.8966C50.0878 9.81579 49.5275 9.27539 48.407 9.27539H46.1644C45.0431 9.27539 44.4824 9.81579 44.4824 10.8966V13.2385C44.4824 14.3193 45.0431 14.8601 46.1644 14.8609H48.4058C49.5271 14.8609 50.0874 14.3201 50.0865 13.2385L50.0878 10.8966ZM48.407 13.7793H46.1644C45.7923 13.7793 45.6037 13.5994 45.6037 13.2385V10.8954C45.6037 10.5344 45.7898 10.3545 46.1644 10.3545H48.4058C48.7787 10.3545 48.9656 10.5348 48.9665 10.8954V13.2372C48.9665 13.5978 48.7796 13.778 48.4058 13.778L48.407 13.7793Z" fill="white" style="fill:white;fill-opacity:1;"/>
<path d="M49.0612 2.85646V1.76367H43.457V5.65976C43.457 6.64381 43.9118 7.15734 44.8215 7.20034H49.0562V6.11747H44.5784V5.0284H47.9398V3.94057H44.5784V2.85646H49.0612Z" fill="white" style="fill:white;fill-opacity:1;"/>
<path d="M41.7747 1.76367V3.94057H38.4132V1.76367H37.2969V5.65976C37.2969 6.54789 37.669 7.05273 38.4132 7.17429V5.0284H41.7747V7.2053H42.8911V1.76367H41.7747Z" fill="white" style="fill:white;fill-opacity:1;"/>
<path d="M30.1295 9.36523L26.7667 13.1125V9.36523H25.6504V13.3097C25.6719 14.159 26.051 14.6394 26.7878 14.751L30.1369 11.0224V14.7647H31.2533V9.36523H30.1295Z" fill="white" style="fill:white;fill-opacity:1;"/>
<path d="M37.5306 10.8969V14.7644H36.4143V13.6828H33.0441V14.7421C32.3263 14.628 31.9542 14.1587 31.9277 13.3342V10.8956C31.9277 9.81481 32.4884 9.27441 33.6097 9.27441H35.8511C36.9691 9.27441 37.5277 9.81481 37.5269 10.8956L37.5306 10.8969ZM36.4143 10.8969C36.4143 10.5363 36.2274 10.356 35.8536 10.356H33.6023C33.2277 10.356 33.0408 10.5363 33.0416 10.8969V12.6086H36.4031L36.4143 10.8969Z" fill="white" style="fill:white;fill-opacity:1;"/>
<path d="M50.7656 9.36523V13.4461C50.8227 14.2078 51.1948 14.6423 51.882 14.7498V10.4456H55.2435V9.36523H50.7656Z" fill="white" style="fill:white;fill-opacity:1;"/>
<path d="M16.2777 17.9152V30.9555C16.2777 33.1882 14.5175 35.0141 12.3555 35.0141H0.482422V21.5508C0.482422 21.4144 0.489864 21.2779 0.502268 21.1452V15.6775C0.502268 10.701 1.92128 6.92733 4.75932 4.3564C7.59735 1.78547 11.4227 0.5 16.2355 0.5V9.67895C13.4744 9.67895 11.6597 10.3318 10.7914 11.6375C10.103 12.6658 9.75192 15.0474 9.73084 17.914L16.2777 17.9152Z" fill="white" style="fill:white;fill-opacity:1;"/>
<path d="M23.9403 35.0866C23.9192 37.9532 23.5682 40.3348 22.8798 41.3631C22.0115 42.668 20.198 43.3208 17.4394 43.3217V52.5006C22.248 52.5006 26.0721 51.2151 28.9118 48.6442C31.7515 46.0733 33.1705 42.2996 33.1689 37.3231V31.8567C33.1813 31.7227 33.1887 31.5875 33.1887 31.4498V17.9902H21.3206C19.1573 17.9902 17.3984 19.8111 17.3984 22.0488V35.0866H23.9403Z" fill="white" style="fill:white;fill-opacity:1;"/>
</g>
<defs>
<clipPath id="clip0_170_5295">
<rect width="54.7611" height="52" fill="white" style="fill:white;fill-opacity:1;" transform="translate(0.482422 0.5)"/>
</clipPath>
</defs>
</svg>
