<svg width="246" height="172" viewBox="0 0 246 172" fill="none" xmlns="http://www.w3.org/2000/svg">
<rect width="245.467" height="172" rx="27.6583" fill="#E4E4E4" fill-opacity="0.08" style="fill:#E4E4E4;fill:color(display-p3 0.8931 0.8931 0.8931);fill-opacity:0.08;"/>
<g clip-path="url(#clip0_170_4642)">
<path fill-rule="evenodd" clip-rule="evenodd" d="M75.1326 86.4649C73.5728 91.6306 77.5986 96.4216 86.0619 96.6103H98.9655L102.974 89.6283H91.763C89.2745 89.6283 88.9543 88.5017 88.9543 88.5017H103.625L107.627 81.5397H93.4079C93.5261 81.4055 94.6369 80.4236 96.3521 80.4236H108.27L112.248 73.5015H97.7007C87.6961 73.5015 77.0299 80.1871 75.1339 86.4635M138.362 86.4649C136.802 91.6306 140.829 96.4216 149.291 96.6103H161.76L165.768 89.6283H154.992C148.533 89.6283 151.557 80.4236 162.906 80.4236H170.508L174.487 73.5015H160.931C149.363 73.5015 140.259 80.1871 138.363 86.4635M143.892 73.5015H129.598C120.824 73.5015 111.004 78.5502 107.348 84.9104L105.286 88.499H118.399C118.399 88.7076 117.209 89.6283 115.104 89.6283L104.633 89.6336L100.622 96.6143L115.379 96.6103C123.152 96.6103 133.069 92.3361 136.473 86.4077L139.269 81.545L125.205 81.5397C125.205 81.2181 126.461 80.5193 127.854 80.5193L139.857 80.5246L143.892 73.5015Z" fill="white" style="fill:white;fill-opacity:1;"/>
<path fill-rule="evenodd" clip-rule="evenodd" d="M201.874 79.0179C199.895 73.5399 190.739 71.8247 181.42 75.1914C177.503 76.6024 174.184 78.6884 171.796 81.04C172.75 81.1423 173.709 81.2699 174.683 81.4559C175.467 81.606 176.201 81.7881 176.976 81.9807C179.472 82.6025 182.294 83.3067 187.887 83.1366C187.897 83.1366 187.348 84.076 187.348 84.076C181.859 84.2513 179.007 83.5644 176.577 82.9612C175.78 82.7619 175.032 82.5746 174.212 82.4165C169.46 81.5104 164.803 81.8133 160.314 82.8775L159.544 84.2168C164.25 82.9081 168.976 82.7247 173.969 83.6787C174.754 83.8302 175.489 84.0109 176.265 84.2088C178.675 84.8054 181.398 85.4816 186.618 85.3714L186.078 86.3094C180.897 86.4343 178.223 85.7739 175.864 85.1827C175.068 84.9861 174.32 84.7974 173.499 84.6406C168.51 83.6867 163.654 84.0427 158.944 85.2598L158.177 86.615C163.101 85.1362 168.033 84.9063 173.257 85.9041C174.042 86.053 174.776 86.2363 175.553 86.429C177.87 87.0082 180.479 87.6539 185.325 87.6061L184.784 88.5375C179.886 88.6066 177.281 87.9702 174.967 87.4002C174.17 87.1987 173.368 87.0184 172.562 86.8594C167.45 85.8988 162.491 86.2403 157.666 87.4879L156.883 88.8431C160.439 87.7947 164.15 87.3708 167.851 87.5902C167.553 88.8617 167.67 89.9392 168.123 91.1987C170.104 96.6767 179.261 98.3919 188.58 95.0265C197.896 91.6624 203.849 84.4958 201.873 79.0165M76.0136 81.5383H65.9585C66.1047 81.1397 67.4147 80.4222 69.8713 80.4222H76.654L80.6319 73.5001H71.0485C61.9833 73.5001 52.7294 78.6817 48.6186 85.7102L42.3555 96.6102H55.2564L59.7259 88.5003H72.0117L76.0136 81.5383Z" fill="white" style="fill:white;fill-opacity:1;"/>
</g>
<defs>
<clipPath id="clip0_170_4642">
<rect width="160.764" height="25.2439" fill="white" style="fill:white;fill-opacity:1;" transform="translate(42.3516 73.3779)"/>
</clipPath>
</defs>
</svg>
