<svg width="245" height="172" viewBox="0 0 245 172" fill="none" xmlns="http://www.w3.org/2000/svg">
<rect x="0.226562" width="244.603" height="172" rx="27.6583" fill="#E4E4E4" fill-opacity="0.08" style="fill:#E4E4E4;fill:color(display-p3 0.8931 0.8931 0.8931);fill-opacity:0.08;"/>
<path d="M145.885 65.847V67.6626H161.419C162.714 67.517 164.015 67.8785 165.05 68.6713C165.843 69.7059 166.204 71.0073 166.059 72.3026V87.6146C166.204 88.9099 165.843 90.2113 165.05 91.2459C164.005 92.0169 162.712 92.376 161.419 92.2546H153.954C152.744 92.2546 150.928 92.2546 150.323 90.8424C150.126 90.2041 150.116 89.5226 150.295 88.8789C150.474 88.2352 150.834 87.6564 151.332 87.2111L161.419 73.8963H145.885L139.59 82.1878C138.528 83.2992 137.824 84.7054 137.573 86.2226C137.7 87.7772 138.423 89.2227 139.59 90.2574L141.204 92.2748C142.513 94.2912 144.231 96.0096 146.248 97.3182C148.761 98.2435 151.451 98.5884 154.116 98.3269H160.773C164.606 98.3269 170.456 98.3269 174.29 94.4939C178.123 90.6608 178.123 85.0122 178.123 82.9948V76.7409C178.123 74.7235 178.123 69.0748 174.29 65.2418C170.456 61.4087 164.646 61.3885 160.813 61.3885H150.121C148.891 61.2708 147.662 61.6321 146.692 62.3972C146.064 63.4325 145.781 64.6406 145.885 65.847ZM127.325 73.7148H142.859L124.299 98.3269H108.765L127.325 73.7148ZM68.0135 74.9252C67.6147 75.3548 67.3143 75.866 67.1331 76.4235C66.9519 76.9809 66.8944 77.5711 66.9645 78.153V79.9687H73.2184V110.633H85.5245V79.9687H97.6288C98.8392 79.9687 100.655 79.9687 101.26 81.3809C101.457 82.0192 101.467 82.7007 101.288 83.3444C101.109 83.9881 100.749 84.5669 100.251 85.0122L90.1645 98.3269H105.698L111.952 90.0556C113.015 88.9442 113.718 87.5381 113.97 86.0208C113.842 84.4662 113.12 83.0208 111.952 81.9861L110.338 79.9687C109.03 77.9522 107.311 76.2338 105.295 74.9252C102.782 73.9999 100.092 73.6551 97.427 73.9165H71.4431C70.8342 73.7484 70.1905 73.7537 69.5845 73.9319C68.9785 74.1102 68.4344 74.4542 68.0135 74.9252Z" fill="white" style="fill:white;fill-opacity:1;"/>
</svg>
