<svg width="233" height="172" viewBox="0 0 233 172" fill="none" xmlns="http://www.w3.org/2000/svg">
<rect x="-12.8438" width="245.467" height="172" rx="27.6583" fill="#E4E4E4" fill-opacity="0.08" style="fill:#E4E4E4;fill:color(display-p3 0.8931 0.8931 0.8931);fill-opacity:0.08;"/>
<g clip-path="url(#clip0_170_4642)">
<path fill-rule="evenodd" clip-rule="evenodd" d="M62.2889 86.4649C60.7291 91.6306 64.7548 96.4216 73.2182 96.6103H86.1218L90.1302 89.6283H78.9193C76.4308 89.6283 76.1106 88.5017 76.1106 88.5017H90.7813L94.7831 81.5397H80.5641C80.6824 81.4055 81.7931 80.4236 83.5084 80.4236H95.4261L99.4041 73.5015H84.8569C74.8524 73.5015 64.1861 80.1871 62.2902 86.4635M125.518 86.4649C123.958 91.6306 127.985 96.4216 136.447 96.6103H148.917L152.924 89.6283H142.149C135.689 89.6283 138.713 80.4236 150.062 80.4236H157.664L161.644 73.5015H148.088C136.519 73.5015 127.415 80.1871 125.52 86.4635M131.048 73.5015H116.755C107.98 73.5015 98.1605 78.5502 94.5041 84.9104L92.4421 88.499H105.556C105.556 88.7076 104.365 89.6283 102.261 89.6283L91.7897 89.6336L87.7786 96.6143L102.536 96.6103C110.308 96.6103 120.225 92.3361 123.629 86.4077L126.426 81.545L112.361 81.5397C112.361 81.2181 113.618 80.5193 115.01 80.5193L127.013 80.5246L131.048 73.5015Z" fill="white" style="fill:white;fill-opacity:1;"/>
<path fill-rule="evenodd" clip-rule="evenodd" d="M189.031 79.0179C187.051 73.5399 177.895 71.8247 168.576 75.1914C164.66 76.6024 161.341 78.6884 158.952 81.04C159.906 81.1423 160.865 81.2699 161.839 81.4559C162.623 81.606 163.358 81.7881 164.132 81.9807C166.629 82.6025 169.451 83.3067 175.043 83.1366C175.053 83.1366 174.505 84.076 174.505 84.076C169.015 84.2513 166.164 83.5644 163.734 82.9612C162.936 82.7619 162.188 82.5746 161.369 82.4165C156.616 81.5104 151.959 81.8133 147.47 82.8775L146.701 84.2168C151.407 82.9081 156.132 82.7247 161.125 83.6787C161.911 83.8302 162.645 84.0109 163.421 84.2088C165.831 84.8054 168.554 85.4816 173.774 85.3714L173.235 86.3094C168.053 86.4343 165.38 85.7739 163.02 85.1827C162.224 84.9861 161.476 84.7974 160.655 84.6406C155.666 83.6867 150.81 84.0427 146.1 85.2598L145.333 86.615C150.257 85.1362 155.189 84.9063 160.413 85.9041C161.199 86.053 161.932 86.2363 162.709 86.429C165.026 87.0082 167.636 87.6539 172.481 87.6061L171.94 88.5375C167.042 88.6066 164.438 87.9702 162.123 87.4002C161.327 87.1987 160.525 87.0184 159.718 86.8594C154.606 85.8988 149.647 86.2403 144.822 87.4879L144.039 88.8431C147.595 87.7947 151.306 87.3708 155.007 87.5902C154.71 88.8617 154.826 89.9392 155.28 91.1987C157.261 96.6767 166.417 98.3919 175.736 95.0265C185.053 91.6624 191.005 84.4958 189.029 79.0165M63.1698 81.5383H53.1148C53.2609 81.1397 54.5709 80.4222 57.0276 80.4222H63.8102L67.7881 73.5001H58.2047C49.1395 73.5001 39.8856 78.6817 35.7749 85.7102L29.5117 96.6102H42.4127L46.8822 88.5003H59.168L63.1698 81.5383Z" fill="white" style="fill:white;fill-opacity:1;"/>
</g>
<defs>
<clipPath id="clip0_170_4642">
<rect width="160.764" height="25.2439" fill="white" style="fill:white;fill-opacity:1;" transform="translate(29.5078 73.3779)"/>
</clipPath>
</defs>
</svg>
