<svg width="246" height="172" viewBox="0 0 246 172" fill="none" xmlns="http://www.w3.org/2000/svg">
<rect x="0.830078" width="244.603" height="172" rx="27.6583" fill="#E4E4E4" fill-opacity="0.08" style="fill:#E4E4E4;fill:color(display-p3 0.8931 0.8931 0.8931);fill-opacity:0.08;"/>
<g clip-path="url(#clip0_170_4651)">
<path d="M50.2041 64.8242C44.7565 64.8242 39.8682 67.0551 36.3725 70.6601L42.9737 76.4327C44.9255 74.3801 47.6988 73.0922 50.7809 73.0922C51.3402 73.0922 51.8821 73.1497 52.4181 73.2302C54.8127 73.5924 56.9451 74.7193 58.5532 76.3752L54.7661 79.6813C53.729 78.6808 52.3132 78.0541 50.7518 78.0541C47.6056 78.0541 45.0595 80.561 45.0595 83.6715C45.0595 86.782 47.5997 89.2889 50.7518 89.2889C52.3423 89.2889 53.7873 88.6334 54.8243 87.6042L58.1745 90.5596L58.6056 90.939C56.6422 92.9916 53.8688 94.2738 50.7751 94.2738C47.6813 94.2738 44.8148 92.9227 42.8571 90.7895L36.2676 96.5967C39.7634 100.253 44.7041 102.536 50.2041 102.536C60.7497 102.536 69.2852 94.0611 69.2852 83.6543C69.2852 73.2474 60.7497 64.8242 50.2041 64.8242Z" fill="white" style="fill:white;fill-opacity:1;"/>
<path d="M76.6816 73.3454V64.8359H78.1965V70.8903L82.7177 64.8359H84.0461V73.3454H82.5312V67.3025L78.01 73.3454H76.6816Z" fill="white" style="fill:white;fill-opacity:1;"/>
<path d="M91.8987 69.7116H87.9543V73.3454H86.4395V64.8359H87.9543V68.3145H91.8987V64.8359H93.4019V73.3454H91.8987V69.7116Z" fill="white" style="fill:white;fill-opacity:1;"/>
<path d="M102.359 72.5227C101.818 73.0919 100.722 73.4829 99.5978 73.4829C96.9585 73.4829 95.1523 71.7465 95.1523 69.096C95.1523 66.6524 96.7196 64.709 99.5629 64.709C100.682 64.709 101.62 65.0597 102.185 65.5714L101.509 66.6754C100.99 66.3361 100.425 66.1061 99.5629 66.1061C97.9606 66.1061 96.7546 67.2503 96.7546 69.096C96.7546 70.9416 97.9723 72.0858 99.7376 72.0858C100.466 72.0858 101.194 71.8558 101.783 71.4073L102.359 72.5285V72.5227Z" fill="white" style="fill:white;fill-opacity:1;"/>
<path d="M102.787 64.8359H109.895V66.2331H107.099V73.3454H105.584V66.2331H102.787V64.8359Z" fill="white" style="fill:white;fill-opacity:1;"/>
<path d="M111.213 73.3454V64.8359H112.728V70.8903L117.249 64.8359H118.577V73.3454H117.062V67.3025L112.541 73.3454H111.213Z" fill="white" style="fill:white;fill-opacity:1;"/>
<path d="M119.9 64.8359H127.008V66.2331H124.212V73.3454H122.697V66.2331H119.9V64.8359Z" fill="white" style="fill:white;fill-opacity:1;"/>
<path d="M132.467 71.3675C131.878 72.6669 131.196 73.3511 130.124 73.3511C129.682 73.3511 129.175 73.1901 128.942 73.0119L129.472 71.747C129.705 71.908 129.868 71.954 130.113 71.954C130.521 71.954 130.789 71.724 130.963 71.356L131.086 71.0628L127.275 64.8359H128.988L131.808 69.5909L133.871 64.8359H135.397L132.467 71.3675Z" fill="white" style="fill:white;fill-opacity:1;"/>
<path d="M135.672 64.8359H142.78V66.2331H139.983V73.3454H138.469V66.2331H135.672V64.8359Z" fill="white" style="fill:white;fill-opacity:1;"/>
<path d="M77.7877 82.9012H81.633C81.3359 81.481 80.1531 80.6876 78.5276 80.6876C77.8401 80.6876 77.1118 80.8946 76.5059 81.343L75.9174 80.2219C76.5233 79.7101 77.5663 79.2847 78.8888 79.2847C81.4291 79.2847 83.2236 81.0096 83.2236 83.6601C83.2236 86.3107 81.4757 88.0643 78.714 88.0643C77.5196 88.0643 76.4243 87.6849 75.8184 87.1789L76.4709 85.9255C77.0128 86.3395 77.7876 86.6672 78.6907 86.6672C80.1706 86.6672 81.4116 85.8622 81.6738 84.2983H77.7935V82.9012H77.7877Z" fill="white" style="fill:white;fill-opacity:1;"/>
<path d="M84.9707 79.4287H86.4855V83.4649L89.8881 79.4287H91.7117L88.1635 83.3902L91.9331 87.9382H90.0105L86.4855 83.5512V87.9382H84.9707V79.4287Z" fill="white" style="fill:white;fill-opacity:1;"/>
<path d="M96.6132 79.2905C99.1768 79.2905 101.111 81.0269 101.111 83.6775C101.111 86.3281 99.1768 88.0645 96.6132 88.0645C94.0496 88.0645 92.127 86.3281 92.127 83.6775C92.127 81.2109 93.9622 79.2905 96.6132 79.2905ZM96.6132 86.673C98.4252 86.673 99.5089 85.3621 99.5089 83.6832C99.5089 81.9181 98.2387 80.6934 96.6132 80.6934C94.9877 80.6934 93.7292 81.9239 93.7292 83.6832C93.7292 85.4426 94.9993 86.673 96.6132 86.673Z" fill="white" style="fill:white;fill-opacity:1;"/>
<path d="M108.319 84.3044H104.374V87.9382H102.859V79.4287H104.374V82.9072H108.319V79.4287H109.822V87.9382H108.319V84.3044Z" fill="white" style="fill:white;fill-opacity:1;"/>
<path d="M116.055 79.2905C118.618 79.2905 120.553 81.0269 120.553 83.6775C120.553 86.3281 118.618 88.0645 116.055 88.0645C113.491 88.0645 111.568 86.3281 111.568 83.6775C111.568 81.2109 113.404 79.2905 116.055 79.2905ZM116.055 86.673C117.867 86.673 118.95 85.3621 118.95 83.6832C118.95 81.9181 117.68 80.6934 116.055 80.6934C114.429 80.6934 113.171 81.9239 113.171 83.6832C113.171 85.4426 114.441 86.673 116.055 86.673Z" fill="white" style="fill:white;fill-opacity:1;"/>
<path d="M122.299 79.4287H123.825L126.768 83.4075L129.576 79.4287H131.003V87.9382H129.5V81.7861L126.779 85.5693H126.558L123.808 81.8263V87.9439H122.293V79.4345L122.299 79.4287Z" fill="white" style="fill:white;fill-opacity:1;"/>
<path d="M133.406 87.9382V79.4287H134.921V85.4831L139.442 79.4287H140.771V87.9382H139.256V81.8953L134.735 87.9382H133.406Z" fill="white" style="fill:white;fill-opacity:1;"/>
<path d="M143.158 79.4287H144.673V83.4649L148.076 79.4287H149.899L146.351 83.3902L150.121 87.9382H148.198L144.673 83.5512V87.9382H143.158V79.4287Z" fill="white" style="fill:white;fill-opacity:1;"/>
<path d="M151.438 87.9382V79.4287H152.952V85.4831L157.474 79.4287H158.802V87.9382H157.287V81.8953L152.766 87.9382H151.438Z" fill="white" style="fill:white;fill-opacity:1;"/>
<path d="M163.807 87.9377V79.4283C164.284 79.4283 165.654 79.4053 166.26 79.4053C168.8 79.4053 169.598 80.7449 169.598 82.1421C169.598 83.5393 168.503 84.9019 166.446 84.9019C166.19 84.9019 165.694 84.9019 165.327 84.8674V87.9435H163.812L163.807 87.9377ZM165.321 80.8254V83.4415C165.677 83.476 166.05 83.5048 166.394 83.5048C167.291 83.5048 167.996 83.0793 167.996 82.1306C167.996 81.2452 167.442 80.8082 166.405 80.8082C166.096 80.8082 165.729 80.8197 165.321 80.8312V80.8254Z" fill="white" style="fill:white;fill-opacity:1;"/>
<path d="M175.133 79.2905C177.696 79.2905 179.631 81.0269 179.631 83.6775C179.631 86.3281 177.696 88.0645 175.133 88.0645C172.569 88.0645 170.646 86.3281 170.646 83.6775C170.646 81.2109 172.482 79.2905 175.133 79.2905ZM175.133 86.673C176.945 86.673 178.028 85.3621 178.028 83.6832C178.028 81.9181 176.758 80.6934 175.133 80.6934C173.507 80.6934 172.249 81.9239 172.249 83.6832C172.249 85.4426 173.519 86.673 175.133 86.673Z" fill="white" style="fill:white;fill-opacity:1;"/>
<path d="M187.945 87.1096C187.404 87.6789 186.308 88.0698 185.184 88.0698C182.544 88.0698 180.738 86.3334 180.738 83.6829C180.738 81.2393 182.306 79.2959 185.149 79.2959C186.267 79.2959 187.205 79.6466 187.771 80.1583L187.095 81.2623C186.576 80.923 186.011 80.6931 185.149 80.6931C183.547 80.6931 182.341 81.8372 182.341 83.6829C182.341 85.5285 183.558 86.6727 185.324 86.6727C186.052 86.6727 186.78 86.4427 187.369 85.9942L187.945 87.1154V87.1096Z" fill="white" style="fill:white;fill-opacity:1;"/>
<path d="M188.377 79.4287H195.485V80.8259H192.688V87.9382H191.174V80.8259H188.377V79.4287Z" fill="white" style="fill:white;fill-opacity:1;"/>
<path d="M198.579 79.3989H199.907L203.555 87.9371H201.941L201.043 85.758H197.361L196.464 87.9371H194.938L198.585 79.3989H198.579ZM197.938 84.3609H200.461L199.202 81.3308L197.932 84.3609H197.938Z" fill="white" style="fill:white;fill-opacity:1;"/>
<path d="M76.6816 102.525V94.0151H78.1965V100.069L82.7177 94.0151H84.0461V102.525H82.5312V96.4817L78.01 102.525H76.6816Z" fill="white" style="fill:white;fill-opacity:1;"/>
<path d="M86.4394 94.0151H87.9659L90.9082 97.9939L93.7165 94.0151H95.1439V102.525H93.6407V96.3725L90.9198 100.156H90.6984L87.9484 96.4127V102.53H86.4336V94.0209L86.4394 94.0151Z" fill="white" style="fill:white;fill-opacity:1;"/>
<path d="M97.8831 100.713C98.4133 100.713 98.7803 101.191 98.7803 101.616C98.7803 102.116 98.4133 102.588 97.8831 102.588C97.2655 102.588 96.8984 102.116 96.8984 101.616C96.8984 101.191 97.2655 100.713 97.8831 100.713Z" fill="white" style="fill:white;fill-opacity:1;"/>
<path d="M109.207 101.702C108.665 102.272 107.57 102.663 106.445 102.663C103.806 102.663 102 100.926 102 98.2756C102 95.832 103.567 93.8887 106.411 93.8887C107.529 93.8887 108.467 94.2394 109.032 94.7511L108.356 95.855C107.838 95.5158 107.273 95.2858 106.411 95.2858C104.808 95.2858 103.602 96.43 103.602 98.2756C103.602 100.121 104.82 101.265 106.585 101.265C107.314 101.265 108.042 101.035 108.63 100.587L109.207 101.708V101.702Z" fill="white" style="fill:white;fill-opacity:1;"/>
<path d="M109.641 94.0151H116.749V95.4123H113.952V102.525H112.437V95.4123H109.641V94.0151Z" fill="white" style="fill:white;fill-opacity:1;"/>
<path d="M121.514 93.8828C124.077 93.8828 126.011 95.6192 126.011 98.2698C126.011 100.92 124.077 102.657 121.514 102.657C118.95 102.657 117.027 100.92 117.027 98.2698C117.027 95.8032 118.863 93.8828 121.514 93.8828ZM121.514 101.265C123.326 101.265 124.409 99.9544 124.409 98.2755C124.409 96.5104 123.139 95.2857 121.514 95.2857C119.888 95.2857 118.63 96.5161 118.63 98.2755C118.63 100.035 119.9 101.265 121.514 101.265Z" fill="white" style="fill:white;fill-opacity:1;"/>
<path d="M132.565 95.4123H130.054L129.88 97.0164C129.373 101.967 128.254 102.766 126.553 102.525L126.588 101.041C127.252 101.127 128.126 100.846 128.51 95.717L128.633 94.0151H134.069V102.525H132.565V95.4123Z" fill="white" style="fill:white;fill-opacity:1;"/>
<path d="M137.974 96.9359C138.358 96.8899 138.69 96.8727 138.935 96.8727C141.068 96.8727 142.087 97.9536 142.087 99.621C142.087 101.421 140.805 102.553 138.597 102.553C137.782 102.553 136.96 102.53 136.453 102.53V94.0209H137.968V96.9417L137.974 96.9359ZM137.974 98.3331V101.116C138.248 101.127 138.492 101.15 138.789 101.15C139.896 101.15 140.491 100.65 140.491 99.6555C140.491 98.7413 139.873 98.2699 138.813 98.2699C138.58 98.2699 138.318 98.2929 137.974 98.3331ZM143.212 94.0151H144.715V102.525H143.212V94.0151Z" fill="white" style="fill:white;fill-opacity:1;"/>
<path d="M152.462 95.4123H148.616V102.525H147.102V94.0151H153.977V102.525H152.462V95.4123Z" fill="white" style="fill:white;fill-opacity:1;"/>
<path d="M156.367 102.525V94.0151H157.882V100.069L162.403 94.0151H163.732V102.525H162.217V96.4817L157.696 102.525H156.367Z" fill="white" style="fill:white;fill-opacity:1;"/>
<path d="M171.586 98.8908H167.642V102.525H166.127V94.0151H167.642V97.4937H171.586V94.0151H173.089V102.525H171.586V98.8908Z" fill="white" style="fill:white;fill-opacity:1;"/>
<path d="M178.011 93.9917H179.339L182.986 102.53H181.372L180.475 100.351H176.793L175.896 102.53H174.369L178.016 93.9917H178.011ZM177.37 98.9536H179.892L178.634 95.9236L177.364 98.9536H177.37Z" fill="white" style="fill:white;fill-opacity:1;"/>
<path d="M192.259 95.4123H188.413V102.525H186.898V94.0151H193.773V102.525H192.259V95.4123Z" fill="white" style="fill:white;fill-opacity:1;"/>
<path d="M196.504 100.713C197.034 100.713 197.401 101.191 197.401 101.616C197.401 102.116 197.034 102.588 196.504 102.588C195.887 102.588 195.52 102.116 195.52 101.616C195.52 101.191 195.887 100.713 196.504 100.713Z" fill="white" style="fill:white;fill-opacity:1;"/>
<path d="M202.085 93.9917H203.413L207.06 102.53H205.447L204.549 100.351H200.867L199.97 102.53H198.443L202.091 93.9917H202.085ZM201.444 98.9536H203.967L202.708 95.9236L201.438 98.9536H201.444Z" fill="white" style="fill:white;fill-opacity:1;"/>
<path d="M209.096 100.713C209.626 100.713 209.993 101.191 209.993 101.616C209.993 102.116 209.626 102.588 209.096 102.588C208.478 102.588 208.111 102.116 208.111 101.616C208.111 101.191 208.478 100.713 209.096 100.713Z" fill="white" style="fill:white;fill-opacity:1;"/>
</g>
<defs>
<clipPath id="clip0_170_4651">
<rect width="173.729" height="42.3518" fill="white" style="fill:white;fill-opacity:1;" transform="translate(36.2676 64.8242)"/>
</clipPath>
</defs>
</svg>
