<svg width="245" height="172" viewBox="0 0 245 172" fill="none" xmlns="http://www.w3.org/2000/svg">
<rect width="244.603" height="172" rx="27.6583" fill="#E4E4E4" fill-opacity="0.08" style="fill:#E4E4E4;fill:color(display-p3 0.8931 0.8931 0.8931);fill-opacity:0.08;"/>
<g clip-path="url(#clip0_170_4775)">
<path fill-rule="evenodd" clip-rule="evenodd" d="M201.044 77.9754H204.783L204.76 83.8127H205.572L207.705 77.9754H211.751L208.847 85.6872L212.169 94.2237H207.793L205.64 87.6898H204.76L204.783 94.2237H201.044V77.9754ZM188.451 77.9754H192.166V83.8344H194.827V77.9745H198.539V94.2228H194.827V87.7105H192.166V94.2228H188.451V77.9754ZM175.502 94.2444H179.371L179.834 91.435H182.491L182.954 94.2444H186.823L183.57 77.999H178.777L175.502 94.2444ZM181.173 82.9183L181.876 87.863H180.446L181.173 82.9183ZM165.124 94.2237H169.652C170.641 94.2237 174.753 93.8085 174.775 88.8855C174.775 84.7523 171.589 84.0321 169.521 84.0321H168.841V81.8751H173.874V77.9764H165.124V94.2237ZM168.841 90.9558V87.2765H169.39C169.851 87.2765 171.04 87.2972 171.04 88.974C171.04 90.6752 169.851 90.9558 169.39 90.9558H168.841ZM150.375 77.9754H153.607L156.462 81.8083L159.344 77.9754H162.554V94.2237H158.747V84.3136L156.462 87.1446L154.178 84.3126V94.2237H150.375V77.9754ZM142.526 94.4205C147.032 94.4205 148.548 90.2365 148.548 86.0789C148.548 81.9203 147.032 77.7372 142.526 77.7372C138.02 77.7372 136.503 81.9203 136.503 86.0789C136.503 90.2365 138.02 94.4205 142.526 94.4205ZM142.526 90.4766C141.182 90.4766 140.504 88.9325 140.504 86.0779C140.504 83.2243 141.182 81.6783 142.526 81.6783C143.869 81.6783 144.547 83.2243 144.547 86.0789C144.547 88.9325 143.869 90.4766 142.526 90.4766ZM125.488 94.2237H129.291V88.8666H130.568C134.325 88.8666 135.492 85.5112 135.492 83.374C135.492 81.2848 134.148 77.9754 130.568 77.9754H125.488V94.2237ZM129.291 81.5475H130.193C131.051 81.5475 131.601 82.07 131.601 83.421C131.601 85.1628 130.676 85.2918 130.193 85.2918H129.291V81.5475ZM112.936 77.9754H123.312V94.2237H119.509V81.8949H116.739V94.2228H112.936V77.9754ZM105.131 84.2712C105.746 84.2712 106.869 83.8786 106.869 82.681C106.869 81.266 105.573 81.1765 105.196 81.1765C104.759 81.1765 103.924 81.2443 103.109 81.636L103.065 78.1054C104.362 77.7796 105.286 77.6921 106.384 77.6921C109.508 77.6921 110.892 79.85 110.892 81.9598C110.892 84.0095 109.704 85.2475 108.54 85.7286V85.8802C109.662 86.2323 111.155 87.2962 111.155 89.7799C111.155 92.8529 109.002 94.5495 106.231 94.5495C104.758 94.5297 103.791 94.3329 102.625 93.7021L102.692 90.3241C103.769 90.7835 104.494 90.8259 105.221 90.8259C106.452 90.8259 106.934 89.9315 106.934 89.2809C106.934 88.3648 106.341 87.7557 105.045 87.7557H103.505V84.2721H105.131V84.2712ZM90.1856 94.2237H94.0314L94.5163 91.4124H97.1756L97.6367 94.2237H101.482L98.229 77.9754H93.4372L90.1856 94.2237ZM95.8331 82.8769L96.5595 87.8423H95.1077L95.8331 82.8769ZM82.8211 77.9754H90.622V82.0257H86.6887V94.2237H82.8211V77.9754ZM51.0079 67.1699C40.5116 67.1699 31.9805 75.6151 31.9805 86.0092C31.9805 96.3835 40.5125 104.83 51.0079 104.83C61.4805 104.83 70.0106 96.3835 70.0106 86.0092C70.0106 75.6151 61.4805 67.1699 51.0079 67.1699ZM51.0079 103.888C41.0402 103.888 32.9312 95.8657 32.9312 86.0092C32.9312 76.1376 41.0364 68.1114 51.0079 68.1114C60.9594 68.1114 69.0599 76.1395 69.0599 86.0092C69.0599 95.8638 60.9566 103.888 51.0079 103.888Z" fill="white" style="fill:white;fill-opacity:1;"/>
<path fill-rule="evenodd" clip-rule="evenodd" d="M43.1928 74.7362C47.7859 72.7119 53.3934 72.8438 56.4025 74.1713C57.3485 74.6072 57.9846 74.8708 58.2727 75.3905C55.1494 74.562 53.8089 74.4123 51.1943 74.4754C47.4769 74.5413 42.531 75.9987 40.6409 77.1125L39.809 78.1378C42.531 76.5429 47.61 75.5016 50.4261 75.4131C53.5693 75.3707 56.007 75.6541 58.2508 76.4591C58.1177 77.024 57.8325 77.3083 57.3495 77.5926C48.3801 76.0448 43.0815 77.8732 38.2888 80.966L37.9389 81.9885C43.2812 78.3543 49.83 77.3535 56.1411 78.4409C53.8764 79.2252 51.1724 79.3994 48.9087 79.9181C46.9749 80.355 45.9414 80.4868 43.3658 81.3379C40.7541 82.1871 39.211 83.058 38.246 84.169C37.7839 84.6934 37.4321 85.3016 37.3428 85.9531C37.3019 86.3438 37.3238 86.695 37.4569 87.0452C37.5614 87.3493 37.8048 87.6534 38.0701 87.9585C37.764 88.4801 37.4958 89.1579 37.9389 89.9422C38.1357 90.3094 38.6415 90.6794 39.1273 91.0315L38.9914 91.4204C38.9248 91.8807 38.8611 92.423 39.1692 92.8797C39.6949 93.7072 40.3329 94.2533 41.3435 94.7758C41.4995 95.4518 41.7391 95.9941 42.2667 96.4762C43.3877 97.4977 45.8958 99.4579 50.3567 99.7639C53.7005 99.9832 56.0954 98.9796 56.9977 98.5437L58.0958 97.9788C56.2285 98.7169 53.0854 99.1538 50.5107 98.9354C46.7743 98.6303 43.4352 96.2144 43.0169 95.5159C43.1471 95.6006 43.324 95.6674 43.4751 95.7343C47.8515 97.8244 53.5008 98.958 60.7342 96.0393L61.3303 95.4725C54.7539 97.4968 48.9971 97.4337 42.8172 94.2317C42.8847 93.9276 43.0169 93.6621 43.3002 93.4493C44.8823 94.1413 46.4006 94.7109 48.2479 95.0799C50.4023 95.4725 52.8638 95.561 54.888 95.4725C56.9321 95.3859 60.9757 94.3842 62.8895 93.3824C63.0645 93.2308 63.1519 92.971 63.3269 92.7949C59.5923 94.1413 55.1504 94.7758 52.4693 94.5781C49.8528 94.3842 47.5253 94.0773 44.4449 92.6848C45.0372 92.4466 45.6533 92.2498 46.2694 92.0728C48.2917 92.6848 50.3567 93.052 52.7973 93.1631C55.2179 93.2723 60.8663 92.3816 64.4269 90.2473C64.5381 89.9422 64.6475 89.6127 64.6475 89.6127C64.6475 89.6127 59.7007 92.23 54.097 92.23C51.4795 92.23 49.8756 91.8572 48.6891 91.5748C51.3255 91.0946 54.6465 90.702 58.3811 89.7671C60.2712 89.2869 62.6024 88.1967 63.6577 87.2834C64.5591 86.4756 65.2636 85.4296 65.023 84.3667C64.9755 84.0805 64.5809 83.4092 64.097 83.1672C64.5591 82.5797 64.5153 82.0779 64.4507 81.6448C64.405 81.3134 64.251 80.9462 64.0561 80.6205C63.7397 80.1905 63.3333 79.8331 62.8648 79.5726C62.9562 79.1154 62.8948 78.6411 62.6899 78.2216C62.2288 77.4373 61.3949 76.7641 59.965 76.0448C59.8994 75.7605 59.7216 75.3905 59.4164 75.0214C57.6147 73.2571 54.6674 72.4078 52.1821 72.3636C52.0443 72.3605 51.9064 72.359 51.7686 72.3589C48.8621 72.3589 46.529 73.0057 45.0848 73.6732C44.3337 73.9952 43.7623 74.3454 43.1928 74.7362ZM59.7872 77.1125C60.4052 77.5051 61.1088 78.0935 61.1943 78.7036C60.5364 78.4607 59.8329 78.2046 59.1521 78.0286C59.3727 77.7885 59.6997 77.4185 59.7872 77.1125ZM56.49 79.8353C57.2401 79.55 57.7431 79.2478 58.1852 78.8976C59.1711 79.1574 60.0953 79.486 60.8464 79.8108C60.7171 80.0019 59.9641 80.6911 59.734 80.6911C59.7222 80.6919 59.7104 80.6896 59.6997 80.6845C58.6473 80.3992 57.7241 80.0509 56.49 79.8353ZM62.4056 80.7052C62.9979 81.2061 63.1729 81.5545 62.8886 82.0996C62.495 81.8171 62.0738 81.6637 61.6146 81.4462C61.8979 81.2278 62.1632 80.9905 62.4056 80.7052ZM44.1378 82.7106C46.8855 81.9009 50.0952 81.2955 52.9988 80.9462C54.9954 80.7052 56.0536 80.9255 57.9447 81.4255C53.0863 82.7097 48.2917 83.1211 43.7185 84.4514C40.0325 85.5125 39.0541 86.8485 39.0389 86.8485C37.4093 84.6265 43.0587 83.0392 44.1378 82.7106ZM46.7334 85.3873C50.7978 84.5164 54.5799 83.9731 56.1401 83.5815C58.0321 83.1211 59.3508 82.688 60.2712 82.254C60.3158 82.1881 61.8104 82.9055 61.9635 83.0768C61.4596 83.493 60.7579 83.8432 59.9859 84.1012C57.6784 84.9297 53.4809 85.7996 51.2609 86.132C49.018 86.5001 47.146 86.7816 44.6655 87.4322C43.2346 87.806 42.2667 88.2409 41.5632 88.6994C41.0355 88.3935 40.7284 88.3078 40.2454 87.9142C41.9596 86.4756 45.4565 85.6707 46.7324 85.3873H46.7334ZM45.717 88.9179C49.5866 87.9773 52.9969 87.805 57.7013 86.5434C59.9641 85.9531 61.6136 85.3195 62.648 84.5399C62.8002 84.4062 62.9532 84.2989 63.1092 84.169C64.4716 86.2591 59.3499 87.8709 55.852 88.6147C53.9173 89.0026 51.2352 89.4809 50.3557 89.6362C48.0739 90.0062 47.3219 90.203 45.7398 90.6596C44.9488 90.3536 44.1568 90.027 43.4343 89.656C44.1568 89.3519 44.9488 89.1118 45.7161 88.9188L45.717 88.9179ZM40.3548 89.6127C40.2007 89.7445 40.002 89.8763 39.849 90.0269C39.4991 89.8292 39.1454 89.398 39.3203 89.0026C39.6721 89.2229 39.9355 89.398 40.3548 89.6127ZM41.9587 90.4224C42.6185 90.7274 43.2992 91.0061 43.9363 91.2914C43.5078 91.4465 43.0963 91.6439 42.7079 91.8807C42.1831 91.5972 41.6627 91.306 41.1467 91.007C41.3664 90.8112 41.6506 90.6163 41.9587 90.4214V90.4224ZM41.6972 92.7064C41.5423 92.9249 41.431 93.0972 41.3673 93.3175C40.8159 92.859 40.5506 92.489 40.5744 92.0738C40.948 92.3138 41.3217 92.5087 41.6963 92.7064H41.6972Z" fill="white" style="fill:white;fill-opacity:1;"/>
</g>
<defs>
<clipPath id="clip0_170_4775">
<rect width="180.643" height="52.7236" fill="white" style="fill:white;fill-opacity:1;" transform="translate(31.9805 59.6382)"/>
</clipPath>
</defs>
</svg>
