<svg width="245" height="172" viewBox="0 0 245 172" fill="none" xmlns="http://www.w3.org/2000/svg">
<rect x="0.226562" width="244.603" height="172" rx="27.6583" fill="#E4E4E4" fill-opacity="0.08" style="fill:#E4E4E4;fill:color(display-p3 0.8931 0.8931 0.8931);fill-opacity:0.08;"/>
<path d="M96.3986 96.2489V74.273C96.3986 65.7975 89.5092 58.8989 81.047 58.8989H59.1016C50.6395 58.8989 43.75 65.7975 43.75 74.273V96.2489C43.75 104.231 49.7533 110.735 57.5277 111.523L73.6658 98.4169H56.2484V92.1095L73.4697 78.0179H56.9374V72.006H83.8028V78.3135L66.5815 92.4051H83.8028V98.7125L67.9582 111.622H81.0482C89.5103 111.622 96.3998 104.724 96.3998 96.2489H96.3986ZM109.486 68.6557H113.521C115.294 68.6557 116.573 69.7391 116.573 71.6115C116.573 73.3862 115.294 74.5674 113.521 74.4697H110.767V78.3135H109.487L109.486 68.6557ZM113.324 73.2873C114.603 73.2873 115.391 72.6961 115.391 71.5138C115.391 70.3314 114.605 69.7391 113.325 69.7391H110.767V73.2873H113.324ZM120.804 71.2182C122.576 71.2182 124.052 72.6961 124.052 74.7652C124.052 76.8355 122.575 78.4112 120.804 78.3135C119.032 78.3135 117.556 76.8355 117.556 74.7652C117.458 72.7951 118.934 71.2182 120.804 71.2182ZM120.804 77.4267C121.985 77.4267 122.87 76.441 122.87 74.8642C122.87 73.2873 121.985 72.3016 120.804 72.3016H120.705C119.525 72.3016 118.64 73.2873 118.64 74.8642C118.64 76.441 119.525 77.4267 120.705 77.4267H120.804ZM128.577 71.2182C130.152 71.2182 131.234 72.105 131.333 73.5829H130.152C130.054 73.1884 129.955 72.7939 129.659 72.5972C129.366 72.3028 129.07 72.2039 128.676 72.2039H128.577C127.298 72.2039 126.512 73.3862 126.512 74.7652C126.512 76.1454 127.201 77.4267 128.577 77.3278H128.676C129.07 77.3278 129.462 77.2289 129.661 76.9333C129.955 76.6389 130.152 76.3421 130.152 75.9476H131.333C131.136 77.4267 130.054 78.3135 128.577 78.3135C126.512 78.3135 125.33 76.7354 125.33 74.7652C125.33 72.7951 126.512 71.2182 128.577 71.2182ZM135.86 71.2182C137.435 71.2182 138.517 72.105 138.616 73.5829H137.435C137.336 73.1884 137.238 72.7939 136.942 72.5972C136.647 72.3028 136.353 72.2039 135.958 72.2039H135.86C134.581 72.2039 133.794 73.3862 133.794 74.7652C133.794 76.1454 134.482 77.4267 135.86 77.3278H135.958C136.353 77.3278 136.745 77.2289 136.943 76.9333C137.238 76.6389 137.435 76.3421 137.435 75.9476H138.616C138.418 77.4267 137.336 78.3135 135.86 78.3135C133.794 78.3135 132.612 76.7354 132.612 74.7652C132.612 72.7951 133.794 71.2182 135.86 71.2182ZM146.39 71.4149V78.3135H145.208V72.6961L141.863 78.3135H140.288V71.4149H141.469V77.0322L144.914 71.4149H146.39ZM154.656 71.4149V78.3135H153.474V72.6961L150.129 78.3135H148.554V71.4149H149.735V77.1311L153.18 71.4149H154.656ZM150.523 68.6557C150.621 69.3458 150.916 69.7391 151.506 69.7391C152.098 69.7391 152.491 69.3458 152.491 68.6557H153.474C153.474 69.9369 152.688 70.4292 151.409 70.4292C150.129 70.4292 149.342 69.838 149.342 68.6557H150.523ZM159.576 71.2182C161.15 71.2182 162.233 72.105 162.331 73.5829H161.15C161.052 73.1884 160.954 72.7939 160.658 72.5972C160.364 72.3028 160.068 72.2039 159.675 72.2039H159.576C158.297 72.2039 157.509 73.3862 157.509 74.7652C157.509 76.1454 158.198 77.4267 159.576 77.3278H159.675C160.068 77.3278 160.461 77.2289 160.658 76.9333C160.954 76.6389 161.15 76.3421 161.15 75.9476H162.331C162.135 77.4267 161.052 78.3135 159.576 78.3135C157.509 78.3135 156.329 76.7354 156.329 74.7652C156.329 72.7951 157.608 71.2182 159.576 71.2182ZM166.465 74.9631L165.185 76.1454V78.3123H164.005V71.4149H165.185V74.7652L168.63 71.4149H170.008L167.252 74.0763L170.204 78.3135H168.729L166.465 74.9631ZM173.845 71.2182C175.617 71.2182 177.092 72.6961 177.092 74.7652C177.092 76.8355 175.617 78.4112 173.845 78.3135C172.074 78.3135 170.597 76.8355 170.597 74.7652C170.597 72.7951 172.074 71.2182 173.845 71.2182ZM173.943 77.4267C175.124 77.4267 176.01 76.441 176.01 74.8642C176.01 73.2873 175.124 72.3016 173.943 72.3016H173.845C172.664 72.3016 171.779 73.2873 171.779 74.8642C171.779 76.441 172.664 77.4267 173.845 77.4267H173.943ZM181.619 71.2182C183.391 71.2182 184.473 72.4995 184.473 74.273V74.9631H179.651C179.651 76.5399 180.734 77.4267 181.619 77.4267H181.718C182.505 77.4267 183.096 77.0322 183.293 76.2432H184.473C184.178 77.6234 183.096 78.4112 181.619 78.4112C179.848 78.4112 178.371 77.1311 178.47 74.7652C178.371 72.4995 179.947 71.2182 181.619 71.2182ZM183.293 74.0763C183.293 72.8928 182.505 72.3016 181.619 72.3016H181.522C180.734 72.3016 179.848 72.7951 179.651 74.0763H183.293ZM112.143 83.1418C113.916 83.1418 115.391 84.6197 115.391 86.69C115.391 88.7591 113.915 90.336 112.143 90.2371C110.372 90.2371 108.896 88.7591 108.896 86.69C108.798 84.6197 110.372 83.044 112.143 83.1418ZM112.242 89.2514C113.423 89.2514 114.308 88.2669 114.308 86.69C114.308 85.112 113.423 84.1275 112.242 84.1275H112.143C110.963 84.1275 110.078 85.1131 110.078 86.69C110.078 88.2669 110.963 89.2514 112.143 89.2514H112.242ZM117.065 83.6352C117.163 82.9451 117.359 82.4517 117.655 82.0572C118.147 81.466 118.934 81.1716 120.016 81.1716H121.592C122.083 81.1716 122.28 81.0727 122.28 80.6782V80.4815H123.363V80.8748C123.363 81.8605 122.968 82.255 121.788 82.255H120.016C118.443 82.255 117.951 83.044 117.851 84.9165C118.344 84.2264 119.328 83.6352 120.312 83.6352C121.985 83.6352 123.363 84.9153 123.363 86.8867C123.363 88.858 121.985 90.4349 120.115 90.4349C117.95 90.4349 116.867 88.8569 116.867 86.2955C116.867 85.1132 116.966 84.2276 117.065 83.6352ZM120.214 89.3503C121.394 89.3503 122.182 88.2669 122.182 86.7878C122.182 85.4087 121.394 84.4231 120.214 84.4231H120.115C118.934 84.4231 118.049 85.4087 118.049 86.69C118.049 88.1679 118.934 89.3503 120.214 89.3503ZM135.663 89.1536V92.0118H134.581V90.1393H125.035V83.2407H126.216V89.1524H129.169V83.2407H130.349V89.1524H133.301V83.2407H134.482V89.1524H135.663V89.1536ZM139.698 83.1418C141.47 83.1418 142.552 84.4231 142.552 86.1966V86.8867H137.73C137.73 88.4635 138.812 89.3503 139.698 89.3503H139.796C140.583 89.3503 141.174 88.957 141.37 88.1679H142.552C142.256 89.5481 141.174 90.336 139.698 90.336C137.926 90.336 136.45 89.0547 136.549 86.69C136.549 84.3241 138.124 83.044 139.698 83.1418ZM141.47 85.901C141.47 84.7186 140.682 84.1275 139.796 84.1275H139.698C138.911 84.1275 138.025 84.6197 137.828 85.901H141.47ZM147.178 83.1418C148.751 83.1418 149.834 84.0285 149.932 85.5065H148.751C148.653 85.1132 148.554 84.7186 148.259 84.522C147.965 84.2264 147.669 84.1275 147.275 84.1275H147.176C145.897 84.1275 145.111 85.3098 145.111 86.69C145.111 88.069 145.8 89.3515 147.176 89.2514H147.275C147.669 89.2514 148.063 89.1536 148.26 88.858C148.554 88.5625 148.751 88.2669 148.751 87.8724H149.932C149.735 89.3503 148.653 90.2371 147.178 90.2371C145.111 90.2371 143.93 88.6602 143.93 86.69C143.93 84.6197 145.111 83.044 147.178 83.1418ZM156.427 84.2264H154.163V90.1381H152.983V84.2264H150.72V83.2407H156.427V84.2264ZM157.707 83.2407H160.954C162.332 83.2407 163.118 84.0297 163.118 85.0142C163.118 85.8032 162.627 86.3944 161.839 86.69C162.528 86.7878 163.316 87.3801 163.316 88.2669C163.316 89.3503 162.332 90.2371 161.053 90.2371H157.707V83.2407ZM160.856 86.1966C161.545 86.1966 162.036 85.8032 162.036 85.1132C162.036 84.522 161.545 84.1275 160.757 84.1275H158.986V86.1966H160.856ZM160.757 89.2514C161.643 89.2514 162.135 88.858 162.135 88.1679C162.135 87.5768 161.643 87.1823 160.856 87.1823H158.887V89.3503H160.757V89.2514ZM167.842 83.1418C169.614 83.1418 171.09 84.6197 171.09 86.69C171.09 88.7591 169.614 90.336 167.842 90.2371C166.071 90.2371 164.595 88.7591 164.595 86.69C164.595 84.6197 166.071 83.044 167.842 83.1418ZM167.941 89.2514C169.122 89.2514 170.008 88.2669 170.008 86.69C170.008 85.112 169.122 84.1275 167.941 84.1275H167.842C166.662 84.1275 165.776 85.1131 165.776 86.69C165.776 88.2669 166.662 89.2514 167.842 89.2514H167.941ZM115.981 97.8258C116.277 98.2191 116.474 98.6148 116.474 99.2048C116.474 100.979 114.998 102.161 112.734 102.161C110.274 102.161 108.896 100.979 108.798 98.8114H110.668C110.864 99.8949 111.553 100.486 112.832 100.486C114.013 100.486 114.605 99.9938 114.605 99.2048C114.605 98.4158 114.013 98.0224 112.931 98.0224H111.652V96.3478H112.832C113.915 96.3478 114.505 95.8544 114.505 95.0666C114.505 94.3765 113.915 93.883 112.832 93.883C112.242 93.883 111.75 94.0809 111.357 94.3765C111.061 94.672 110.864 95.0666 110.766 95.6577H108.896C108.896 95.1643 109.093 94.672 109.29 94.0797C109.585 93.5886 109.979 93.0952 110.57 92.7996C111.241 92.4645 111.984 92.2957 112.734 92.3073C115.096 92.3073 116.376 93.3908 116.376 95.0666C116.376 96.0522 115.784 96.8401 114.702 97.1357C115.195 97.2346 115.588 97.4312 115.981 97.8258ZM118.048 95.0666H119.82V97.728H122.476V95.0666H124.249V101.965H122.476V99.107H119.819V101.964H118.047V95.0677L118.048 95.0666ZM125.724 98.5159C125.724 96.15 127.102 94.8687 128.677 94.9676C129.661 94.9676 130.448 95.4599 130.743 96.0511V95.0677H132.515V101.966H130.741V100.981C130.348 101.572 129.659 102.064 128.676 102.064C127.298 102.163 125.723 100.882 125.723 98.517L125.724 98.5159ZM129.169 100.683C130.054 100.683 130.743 99.8949 130.743 98.5159C130.743 97.1357 130.054 96.3478 129.169 96.3478H129.07C128.184 96.3478 127.495 97.2346 127.495 98.5147C127.495 99.6982 128.184 100.684 129.07 100.684H129.169V100.683ZM134.383 95.0666H136.254V97.728H138.91V95.0666H140.682V101.965H138.91V99.107H136.254V101.964H134.383V95.0666ZM149.243 95.0666V101.965H147.471V97.0367L144.912 101.964H142.552V95.0677H144.323V99.995L146.783 95.0677L149.243 95.0666ZM150.72 98.5159C150.72 96.4456 151.999 94.8687 153.967 94.9676C155.936 94.9676 157.116 96.4456 157.116 98.5159V99.2048H152.491C152.589 100.093 153.278 100.783 154.066 100.783H154.163C154.852 100.783 155.247 100.388 155.345 99.8949H157.116C156.82 101.275 155.64 102.26 153.967 102.26C152.195 102.162 150.621 100.783 150.72 98.5159ZM155.345 97.7268C155.345 96.9378 154.656 96.4456 153.967 96.4456H153.869C153.081 96.4456 152.491 96.939 152.491 97.7268H155.345Z" fill="white" style="fill:white;fill-opacity:1;"/>
</svg>
