<svg width="98" height="93" viewBox="0 0 98 93" fill="none" xmlns="http://www.w3.org/2000/svg">
<g clip-path="url(#clip0_2005_283)">
<path d="M42.7431 9.4758C42.7431 11.4012 41.7519 12.3638 39.7695 12.3638H35.2421C33.7001 12.2892 32.8954 11.4538 32.8281 9.85765V2.73633H41.7512V4.66973H34.812V6.59654H39.7695C41.7534 6.59069 42.7446 7.55044 42.7431 9.4758ZM40.768 9.4758C40.768 8.83499 40.4366 8.51239 39.7761 8.51239H34.812V10.4392H39.7695C40.4279 10.4392 40.7614 10.1188 40.7614 9.4758H40.768Z" fill="white" style="fill:white;fill-opacity:1;"/>
<path d="M51.6667 2.73633L45.7173 9.41216V2.73633H43.7422V9.62942C43.7422 11.2168 44.413 12.1122 45.7546 12.3155L51.6799 5.67703V12.3638H53.655V2.73633H51.6667Z" fill="white" style="fill:white;fill-opacity:1;"/>
<path d="M64.5554 5.6246C64.5554 3.69778 63.7017 2.73438 61.9943 2.73438H54.6426V4.66997H61.5817C62.243 4.66997 62.5737 4.99111 62.5737 5.63338C62.5737 6.27565 62.243 6.59679 61.5817 6.59679H58.6081V8.52141H61.5817C62.243 8.52141 62.5737 8.84254 62.5737 9.48482C62.5737 10.1271 62.243 10.4482 61.5817 10.4482H54.6426V10.5777C54.8971 11.7145 55.6726 12.3129 56.9688 12.3728H61.5774C63.5598 12.3728 64.551 11.517 64.551 9.80522C64.5686 9.01736 64.3689 8.23985 63.9738 7.558C64.3417 6.97923 64.5429 6.31027 64.5554 5.6246Z" fill="white" style="fill:white;fill-opacity:1;"/>
<path d="M97.2744 10.4392H90.333C89.6717 10.4392 89.3411 10.1181 89.3411 9.4758V5.62436C89.3411 4.98209 89.6717 4.66095 90.333 4.66095H97.2744V2.73633H90.333C88.3506 2.73633 87.3594 3.69974 87.3594 5.62655V9.4758C87.3594 11.4012 88.3506 12.3638 90.333 12.3638H97.2744V10.4392Z" fill="white" style="fill:white;fill-opacity:1;"/>
<path d="M42.7431 18.8917C42.7431 16.9795 41.7519 16.0234 39.7695 16.0234H36.7937C34.8113 16.0234 33.8201 16.9795 33.8201 18.8917V23.8317H32.8281V27.6568H34.8032V25.7365H41.7446V27.6502H43.7197V23.8338H42.7277L42.7431 18.8917ZM35.8017 23.8317V18.8917C35.8017 18.2538 36.1324 17.9349 36.7937 17.9349H39.7695C40.4279 17.9349 40.7614 18.2531 40.7614 18.8917V23.8317H35.8017Z" fill="white" style="fill:white;fill-opacity:1;"/>
<path d="M77.0744 16.1846H72.1147C70.7161 16.1846 69.7249 17.1407 69.1411 19.0528C69.0431 19.6907 68.3847 21.9219 67.166 25.7462H69.1828L71.1316 19.0528C71.3086 18.415 71.6392 18.0968 72.1235 18.0982H75.0971V25.7375H77.0722L77.0744 16.1846Z" fill="white" style="fill:white;fill-opacity:1;"/>
<path d="M88.1848 18.8956C88.1848 16.9834 87.1935 16.0273 85.2111 16.0273H81.2434C79.2595 16.0273 78.2676 16.9834 78.2676 18.8956V23.0389C78.2676 24.9511 79.2595 25.9079 81.2434 25.9094H85.2089C87.1928 25.9094 88.184 24.9526 88.1826 23.0389L88.1848 18.8956ZM85.2111 23.9958H81.2434C80.585 23.9958 80.2514 23.6776 80.2514 23.0389V18.8934C80.2514 18.2548 80.5806 17.9366 81.2434 17.9366H85.2089C85.8688 17.9366 86.1994 18.2555 86.2009 18.8934V23.0367C86.2009 23.6746 85.8702 23.9936 85.2089 23.9936L85.2111 23.9958Z" fill="white" style="fill:white;fill-opacity:1;"/>
<path d="M86.3681 4.66973V2.73633H76.4531V9.62942C76.4531 11.3704 77.2578 12.279 78.8671 12.355H86.3593V10.4392H78.437V8.51239H84.3842V6.58777H78.437V4.66973H86.3681Z" fill="white" style="fill:white;fill-opacity:1;"/>
<path d="M73.477 2.73633V6.58777H67.5298V2.73633H65.5547V9.62942C65.5547 11.2007 66.2131 12.0939 67.5298 12.309V8.51239H73.477V12.3638H75.4521V2.73633H73.477Z" fill="white" style="fill:white;fill-opacity:1;"/>
<path d="M52.8718 16.1846L46.9224 22.8143V16.1846H44.9473V23.1632C44.9853 24.6658 45.6561 25.5158 46.9597 25.7133L52.885 19.1165V25.7375H54.8601V16.1846H52.8718Z" fill="white" style="fill:white;fill-opacity:1;"/>
<path d="M65.9655 18.8939V25.7365H63.9904V23.8229H58.0278V25.697C56.7579 25.4951 56.0996 24.6649 56.0527 23.2062V18.8917C56.0527 16.9795 57.0447 16.0234 59.0285 16.0234H62.9941C64.9721 16.0234 65.9604 16.9795 65.9589 18.8917L65.9655 18.8939ZM63.9904 18.8939C63.9904 18.256 63.6598 17.9371 62.9985 17.9371H59.0154C58.3526 17.9371 58.022 18.256 58.0234 18.8939V21.9224H63.9707L63.9904 18.8939Z" fill="white" style="fill:white;fill-opacity:1;"/>
<path d="M89.3848 16.1846V23.4046C89.4857 24.7521 90.1441 25.5209 91.3599 25.7111V18.096H97.3071V16.1846H89.3848Z" fill="white" style="fill:white;fill-opacity:1;"/>
<path d="M28.3653 31.3115V54.3828C28.3653 58.333 25.2513 61.5634 21.4262 61.5634H0.419922V37.7437C0.419922 37.5023 0.433089 37.2609 0.455035 37.0261V27.3525C0.455035 18.548 2.9656 11.8714 7.98674 7.32286C13.0079 2.77429 19.7759 0.5 28.2907 0.5V16.7397C23.4057 16.7397 20.195 17.8947 18.6588 20.2049C17.4409 22.0242 16.8198 26.2377 16.7825 31.3093L28.3653 31.3115Z" fill="white" style="fill:white;fill-opacity:1;"/>
<path d="M41.9237 61.6909C41.8864 66.7625 41.2653 70.976 40.0473 72.7953C38.5111 75.104 35.3027 76.259 30.422 76.2605V92.5002C38.9296 92.5002 45.6954 90.2259 50.7194 85.6773C55.7435 81.1287 58.2541 74.4522 58.2511 65.6476V55.9763C58.2731 55.7392 58.2863 55.5 58.2863 55.2564V31.4434H37.2888C33.4615 31.4434 30.3496 34.665 30.3496 38.6239V61.6909H41.9237Z" fill="white" style="fill:white;fill-opacity:1;"/>
</g>
<defs>
<clipPath id="clip0_2005_283">
<rect width="96.8851" height="92" fill="white" style="fill:white;fill-opacity:1;" transform="translate(0.419922 0.5)"/>
</clipPath>
</defs>
</svg>
