<svg width="246" height="172" viewBox="0 0 246 172" fill="none" xmlns="http://www.w3.org/2000/svg">
<g clip-path="url(#clip0_170_4701)">
<rect x="0.699219" width="244.603" height="172" rx="27.6583" fill="#E4E4E4" fill-opacity="0.08" style="fill:#E4E4E4;fill:color(display-p3 0.8931 0.8931 0.8931);fill-opacity:0.08;"/>
<g clip-path="url(#clip1_170_4701)">
<path d="M41.692 63.1416H32.6777V81.1702H41.692V63.1416Z" fill="white" style="fill:white;fill-opacity:1;"/>
<path d="M51.993 63.1416H48.9883V81.1702H51.993V63.1416Z" fill="white" style="fill:white;fill-opacity:1;"/>
<path d="M76.4088 63.1416H67.3945V81.1702H76.4088V63.1416Z" fill="white" style="fill:white;fill-opacity:1;"/>
<path d="M92.0204 63.1416H89.0156V81.1702H92.0204V63.1416Z" fill="white" style="fill:white;fill-opacity:1;"/>
<path d="M148.37 63.1416H139.355V81.1702H148.37V63.1416Z" fill="white" style="fill:white;fill-opacity:1;"/>
<path d="M173.016 63.1416H170.012V81.1702H173.016V63.1416Z" fill="white" style="fill:white;fill-opacity:1;"/>
<path d="M131.146 63.1416H113.117V81.1702H131.146V63.1416Z" fill="white" style="fill:white;fill-opacity:1;"/>
<path d="M205.565 63.1416H189.039V81.1702H205.565V63.1416Z" fill="white" style="fill:white;fill-opacity:1;"/>
</g>
<path d="M37.0173 99.5823C36.3606 99.5525 35.7636 99.4256 35.2263 99.2092C34.6965 98.9928 34.2413 98.7092 33.8607 98.3585C33.4801 98.0078 33.1891 97.6048 32.9876 97.1421C32.7861 96.6795 32.6816 96.1944 32.6816 95.672C32.6816 95.1497 32.7861 94.6646 32.9876 94.2019C33.1891 93.7393 33.4801 93.3363 33.8607 92.9856C34.2413 92.6348 34.6965 92.3512 35.2263 92.1348C35.7562 91.9184 36.3532 91.7916 37.0173 91.7617V90.9185H38.8456V91.7692C39.5023 91.799 40.0993 91.9259 40.6366 92.1423C41.1664 92.3587 41.6216 92.6423 42.0022 92.993C42.3828 93.3437 42.6738 93.7467 42.8753 94.2094C43.0768 94.6721 43.1813 95.1571 43.1813 95.6795C43.1813 96.2019 43.0768 96.6869 42.8753 97.1496C42.6738 97.6123 42.3828 98.0152 42.0022 98.366C41.6216 98.7167 41.1664 99.0003 40.6366 99.2167C40.1068 99.4331 39.5098 99.56 38.8456 99.5898V100.441H37.0173V99.5823ZM37.0173 93.4184C36.6517 93.4333 36.3158 93.5005 36.0173 93.6273C35.7189 93.7467 35.4577 93.9109 35.2487 94.1124C35.0398 94.3139 34.8756 94.5527 34.7562 94.8213C34.6368 95.09 34.5771 95.3735 34.5771 95.672C34.5771 95.978 34.6368 96.269 34.7562 96.5302C34.8756 96.7914 35.0398 97.0302 35.2487 97.2317C35.4577 97.4332 35.7189 97.5973 36.0173 97.7167C36.3158 97.8361 36.6517 97.9108 37.0173 97.9257V93.4184ZM38.8456 97.9331C39.2113 97.9182 39.5471 97.8511 39.8456 97.7242C40.1441 97.6048 40.4053 97.4406 40.6142 97.2391C40.8232 97.0377 40.9873 96.7989 41.1067 96.5377C41.2261 96.2765 41.2858 95.9854 41.2858 95.6795C41.2858 95.381 41.2261 95.0974 41.1067 94.8288C40.9873 94.5601 40.8232 94.3213 40.6142 94.1198C40.4053 93.9184 40.1441 93.7542 39.8456 93.6348C39.5471 93.5154 39.2113 93.4408 38.8456 93.4258V97.9331Z" fill="white" style="fill:white;fill-opacity:1;"/>
<path d="M47.0252 100.194C46.5402 100.194 46.085 100.112 45.6671 99.9404C45.2492 99.7688 44.8835 99.5375 44.5775 99.239C44.2716 98.9405 44.0328 98.5897 43.8612 98.1868C43.6895 97.7838 43.6074 97.3584 43.6074 96.9032C43.6074 96.448 43.6895 96.0152 43.8612 95.6197C44.0328 95.2167 44.2716 94.866 44.5775 94.5675C44.8835 94.269 45.2417 94.0377 45.6671 93.866C46.085 93.6944 46.5402 93.6123 47.0252 93.6123C47.5103 93.6123 47.9655 93.6944 48.3759 93.866C48.7863 94.0377 49.152 94.269 49.458 94.5675C49.7639 94.866 50.0027 95.2167 50.1744 95.6197C50.346 96.0227 50.4356 96.448 50.4356 96.9032C50.4356 97.3584 50.346 97.7913 50.1744 98.1868C50.0027 98.5897 49.7565 98.9405 49.458 99.239C49.1595 99.5375 48.7938 99.7688 48.3759 99.9404C47.958 100.105 47.5103 100.194 47.0252 100.194ZM47.0252 98.7241C47.2491 98.7241 47.4655 98.6793 47.667 98.5897C47.8685 98.5002 48.0401 98.3733 48.1894 98.2166C48.3386 98.0599 48.458 97.8659 48.5401 97.642C48.6222 97.4181 48.6669 97.1719 48.6669 96.8883C48.6669 96.6122 48.6222 96.3585 48.5401 96.1346C48.458 95.9107 48.3386 95.7167 48.1894 95.56C48.0401 95.4033 47.861 95.2764 47.667 95.1869C47.4655 95.0973 47.2566 95.0526 47.0252 95.0526C46.7939 95.0526 46.5849 95.0973 46.3834 95.1869C46.182 95.2764 46.0103 95.4033 45.8611 95.56C45.7118 95.7167 45.5924 95.9107 45.5103 96.1346C45.4283 96.3585 45.3835 96.6122 45.3835 96.8883C45.3835 97.1644 45.4283 97.4181 45.5103 97.642C45.5924 97.8659 45.7118 98.0599 45.8611 98.2166C46.0103 98.3733 46.1894 98.5002 46.3834 98.5897C46.5775 98.6793 46.7939 98.7241 47.0252 98.7241Z" fill="white" style="fill:white;fill-opacity:1;"/>
<path d="M51.166 93.7842H52.8749V96.105H55.5017V93.7842H57.2106V100.008H55.5017V97.5676H52.8749V100.008H51.166V93.7842Z" fill="white" style="fill:white;fill-opacity:1;"/>
<path d="M57.695 98.5452H58.3666L59.6501 93.7842H62.941L64.2246 98.5452H64.8962V101.291H63.3067V100.008H59.277V101.291H57.6875V98.5452H57.695ZM62.5157 98.5452L61.5978 95.2543H60.9859L60.068 98.5452H62.5157Z" fill="white" style="fill:white;fill-opacity:1;"/>
<path d="M68.5527 93.7842H70.2616V96.4707L70.2019 97.5676H70.3213L72.8212 93.7842H74.6495V100.008H72.9406V97.3214L73.0003 96.2244H72.8884L70.3885 100.008H68.5602L68.5527 93.7842Z" fill="white" style="fill:white;fill-opacity:1;"/>
<path d="M75.7559 93.7842H77.4648V96.105H80.0915V93.7842H81.8004V100.008H80.0915V97.5676H77.4648V100.008H75.7559V93.7842Z" fill="white" style="fill:white;fill-opacity:1;"/>
<path d="M85.7625 100.127C85.3073 100.097 84.8819 99.9853 84.4864 99.8062C84.0909 99.6271 83.7476 99.3958 83.4641 99.1048C83.173 98.8137 82.9491 98.4854 82.7775 98.1048C82.6133 97.7242 82.5312 97.3212 82.5312 96.8884C82.5312 96.4631 82.6133 96.0601 82.7775 95.6795C82.9417 95.2989 83.173 94.9631 83.4641 94.6721C83.7551 94.3811 84.0909 94.1497 84.4864 93.9706C84.8819 93.7915 85.3073 93.687 85.7625 93.6497V91.4707H87.4714V93.6647C87.9266 93.6945 88.3519 93.8064 88.7474 93.9855C89.143 94.1646 89.4862 94.396 89.7698 94.687C90.0608 94.978 90.2847 95.3139 90.4563 95.6944C90.6205 96.075 90.7101 96.478 90.7101 96.9034C90.7101 97.3362 90.628 97.7391 90.4563 98.1197C90.2922 98.5003 90.0608 98.8287 89.7698 99.1197C89.4788 99.4107 89.1355 99.6421 88.7474 99.8212C88.3519 100 87.9266 100.105 87.4714 100.142V102.314H85.7625V100.127ZM85.7625 95.1273C85.3297 95.1945 84.9789 95.3736 84.7103 95.6721C84.4342 95.9705 84.2998 96.381 84.2998 96.8959C84.2998 97.4183 84.4342 97.8287 84.7103 98.1197C84.9864 98.4108 85.3371 98.5973 85.7625 98.6645V95.1273ZM87.4714 98.6645C87.9042 98.5973 88.2549 98.4182 88.5236 98.1197C88.7922 97.8212 88.934 97.4108 88.934 96.8959C88.934 96.3735 88.7997 95.9631 88.5236 95.6721C88.2475 95.3736 87.8967 95.1945 87.4714 95.1273V98.6645Z" fill="white" style="fill:white;fill-opacity:1;"/>
<path d="M91.4336 93.7841H93.1425V94.5751H93.2022C93.329 94.396 93.4932 94.2318 93.6798 94.09C93.8439 93.9706 94.0454 93.8587 94.2842 93.7542C94.523 93.6498 94.8141 93.605 95.1573 93.605C95.5528 93.605 95.926 93.6796 96.2767 93.8363C96.62 93.993 96.9259 94.2094 97.1871 94.493C97.4483 94.7766 97.6498 95.1199 97.8065 95.5303C97.9558 95.9407 98.0304 96.3959 98.0304 96.8959C98.0304 97.3959 97.9558 97.8586 97.8065 98.2615C97.6573 98.672 97.4483 99.0152 97.1871 99.2988C96.9259 99.5824 96.6274 99.8063 96.2767 99.9555C95.9334 100.112 95.5603 100.187 95.1573 100.187C94.8141 100.187 94.523 100.135 94.2842 100.038C94.0454 99.9331 93.8439 99.8212 93.6798 99.7018C93.4932 99.5525 93.3365 99.3958 93.2022 99.2167H93.1425V102.329H91.4336V93.7841ZM94.732 98.7242C95.1648 98.7242 95.523 98.5675 95.8215 98.2466C96.1125 97.9257 96.2618 97.478 96.2618 96.8884C96.2618 96.3064 96.1125 95.8512 95.8215 95.5303C95.5305 95.2169 95.1648 95.0527 94.732 95.0527C94.2693 95.0527 93.8887 95.2094 93.5902 95.5303C93.2917 95.8512 93.1425 96.2989 93.1425 96.8884C93.1425 97.478 93.2917 97.9257 93.5902 98.2466C93.8887 98.5675 94.2618 98.7242 94.732 98.7242Z" fill="white" style="fill:white;fill-opacity:1;"/>
<path d="M101.381 100.194C100.985 100.194 100.612 100.12 100.261 99.9628C99.9182 99.8061 99.6123 99.5897 99.3511 99.3061C99.0899 99.0226 98.8884 98.6793 98.7317 98.2689C98.5825 97.8659 98.5078 97.4032 98.5078 96.9032C98.5078 96.4033 98.5825 95.9406 98.7317 95.5376C98.8809 95.1272 99.0899 94.7839 99.3511 94.5003C99.6123 94.2168 99.9108 93.9929 100.261 93.8436C100.605 93.6869 100.978 93.6123 101.381 93.6123C101.724 93.6123 102.015 93.6645 102.254 93.7616C102.493 93.866 102.694 93.978 102.858 94.0974C103.045 94.2466 103.202 94.4033 103.336 94.5824H103.396V93.7839H105.105V100.008H103.396V99.2166H103.336C103.209 99.3957 103.045 99.5599 102.858 99.7016C102.694 99.821 102.493 99.933 102.254 100.037C102.008 100.142 101.717 100.194 101.381 100.194ZM101.806 98.7241C102.269 98.7241 102.649 98.5674 102.948 98.2465C103.246 97.9256 103.396 97.4778 103.396 96.8883C103.396 96.3062 103.246 95.851 102.948 95.5301C102.649 95.2167 102.269 95.0526 101.806 95.0526C101.373 95.0526 101.015 95.2093 100.717 95.5301C100.426 95.851 100.276 96.2988 100.276 96.8883C100.276 97.4778 100.426 97.9256 100.717 98.2465C101.015 98.5674 101.373 98.7241 101.806 98.7241Z" fill="white" style="fill:white;fill-opacity:1;"/>
<path d="M109.187 100.194C108.716 100.194 108.276 100.112 107.866 99.9404C107.455 99.7688 107.097 99.5375 106.799 99.239C106.5 98.9405 106.261 98.5897 106.09 98.1868C105.918 97.7838 105.836 97.3584 105.836 96.9032C105.836 96.448 105.918 96.0152 106.09 95.6197C106.261 95.2167 106.493 94.866 106.799 94.5675C107.097 94.269 107.455 94.0377 107.866 93.866C108.276 93.6944 108.716 93.6123 109.187 93.6123C109.522 93.6123 109.821 93.6496 110.09 93.7168C110.358 93.7839 110.597 93.881 110.806 93.9929C111.015 94.1048 111.201 94.2391 111.358 94.3809C111.515 94.5302 111.657 94.6794 111.769 94.8361C112.037 95.1943 112.231 95.5973 112.351 96.06H110.582C110.507 95.8809 110.41 95.7167 110.291 95.5749C110.179 95.4555 110.03 95.3436 109.858 95.2391C109.687 95.1346 109.455 95.0899 109.179 95.0899C108.97 95.0899 108.769 95.1346 108.575 95.2242C108.381 95.3137 108.216 95.4406 108.067 95.5973C107.918 95.754 107.806 95.948 107.716 96.1719C107.634 96.3958 107.59 96.6495 107.59 96.9256C107.59 97.2017 107.634 97.4555 107.716 97.6793C107.799 97.9032 107.918 98.0972 108.067 98.2539C108.216 98.4106 108.381 98.5375 108.575 98.6271C108.769 98.7166 108.97 98.7614 109.179 98.7614C109.455 98.7614 109.679 98.7091 109.858 98.6121C110.03 98.5077 110.179 98.3957 110.291 98.2763C110.41 98.1271 110.507 97.9704 110.582 97.7913H112.351C112.246 98.2465 112.06 98.6569 111.791 99.0151C111.679 99.1718 111.545 99.3211 111.381 99.4703C111.224 99.6196 111.037 99.7464 110.828 99.8584C110.619 99.9703 110.373 100.067 110.104 100.134C109.836 100.157 109.53 100.194 109.187 100.194Z" fill="white" style="fill:white;fill-opacity:1;"/>
<path d="M114.559 95.2468H112.484V93.7842H118.342V95.2468H116.268V100.008H114.559V95.2468Z" fill="white" style="fill:white;fill-opacity:1;"/>
<path d="M118.828 93.7841H120.537V94.5751H120.597C120.724 94.396 120.888 94.2318 121.074 94.09C121.238 93.9706 121.44 93.8587 121.679 93.7542C121.918 93.6498 122.209 93.605 122.552 93.605C122.947 93.605 123.321 93.6796 123.671 93.8363C124.015 93.993 124.32 94.2094 124.582 94.493C124.843 94.7766 125.044 95.1199 125.201 95.5303C125.35 95.9407 125.425 96.3959 125.425 96.8959C125.425 97.3959 125.35 97.8586 125.201 98.2615C125.052 98.672 124.843 99.0152 124.582 99.2988C124.32 99.5824 124.022 99.8063 123.671 99.9555C123.328 100.112 122.955 100.187 122.552 100.187C122.209 100.187 121.918 100.135 121.679 100.038C121.44 99.9331 121.238 99.8212 121.074 99.7018C120.888 99.5525 120.731 99.3958 120.597 99.2167H120.537V102.329H118.828V93.7841ZM122.119 98.7242C122.552 98.7242 122.91 98.5675 123.209 98.2466C123.5 97.9257 123.649 97.478 123.649 96.8884C123.649 96.3064 123.5 95.8512 123.209 95.5303C122.918 95.2169 122.552 95.0527 122.119 95.0527C121.656 95.0527 121.276 95.2094 120.977 95.5303C120.679 95.8512 120.53 96.2989 120.53 96.8884C120.53 97.478 120.679 97.9257 120.977 98.2466C121.276 98.5675 121.656 98.7242 122.119 98.7242Z" fill="white" style="fill:white;fill-opacity:1;"/>
<path d="M128.647 100.008H127.304L125.654 93.7842H127.423L128.647 98.5452H129.132L130.475 93.7842H132.244L129.744 102.329H127.975L128.647 100.008Z" fill="white" style="fill:white;fill-opacity:1;"/>
<path d="M132.677 93.7842H134.386V96.105H135.117L136.766 93.7842H138.654L136.64 96.6498L138.834 100.008H136.878L135.289 97.5676H134.371V100.008H132.662V93.7842H132.677Z" fill="white" style="fill:white;fill-opacity:1;"/>
<path d="M140.67 95.2468H138.596V93.7842H144.454V95.2468H142.379V100.008H140.67V95.2468Z" fill="white" style="fill:white;fill-opacity:1;"/>
<path d="M147.379 100.008H146.036L144.387 93.7842H146.155L147.379 98.5452H147.864L149.207 93.7842H150.976L148.476 102.329H146.708L147.379 100.008Z" fill="white" style="fill:white;fill-opacity:1;"/>
<path d="M151.402 93.7841H153.111V94.5751H153.171C153.298 94.396 153.462 94.2318 153.649 94.09C153.813 93.9706 154.014 93.8587 154.253 93.7542C154.492 93.6498 154.783 93.605 155.126 93.605C155.522 93.605 155.895 93.6796 156.245 93.8363C156.589 93.993 156.895 94.2094 157.156 94.493C157.417 94.7766 157.619 95.1199 157.775 95.5303C157.932 95.9407 157.999 96.3959 157.999 96.8959C157.999 97.3959 157.925 97.8586 157.775 98.2615C157.626 98.672 157.417 99.0152 157.156 99.2988C156.895 99.5824 156.596 99.8063 156.245 99.9555C155.895 100.105 155.529 100.187 155.126 100.187C154.783 100.187 154.492 100.135 154.253 100.038C154.014 99.9331 153.813 99.8212 153.649 99.7018C153.462 99.5525 153.305 99.3958 153.171 99.2167H153.111V102.329H151.402V93.7841ZM154.701 98.7242C155.134 98.7242 155.492 98.5675 155.79 98.2466C156.081 97.9257 156.231 97.478 156.231 96.8884C156.231 96.3064 156.081 95.8512 155.79 95.5303C155.499 95.2169 155.134 95.0527 154.701 95.0527C154.238 95.0527 153.857 95.2094 153.559 95.5303C153.26 95.8512 153.111 96.2989 153.111 96.8884C153.111 97.478 153.26 97.9257 153.559 98.2466C153.857 98.5675 154.238 98.7242 154.701 98.7242Z" fill="white" style="fill:white;fill-opacity:1;"/>
<path d="M158.791 93.7842H160.5V96.105H163.127V93.7842H164.836V100.008H163.127V97.5676H160.5V100.008H158.791V93.7842Z" fill="white" style="fill:white;fill-opacity:1;"/>
<path d="M165.926 93.7842H167.635V95.7393H168.791C169.172 95.7393 169.523 95.799 169.829 95.911C170.135 96.0229 170.403 96.1796 170.612 96.3736C170.829 96.5677 170.993 96.7915 171.112 97.0527C171.232 97.3064 171.291 97.5826 171.291 97.8736C171.291 98.1646 171.232 98.4407 171.112 98.6945C170.993 98.9482 170.829 99.1795 170.612 99.3735C170.396 99.5676 170.135 99.7243 169.829 99.8362C169.523 99.9481 169.172 100.008 168.791 100.008H165.926V93.7842ZM168.672 98.6049C168.948 98.6049 169.157 98.5377 169.306 98.396C169.456 98.2542 169.523 98.0825 169.523 97.8736C169.523 97.6646 169.448 97.4855 169.306 97.3512C169.157 97.2094 168.948 97.1423 168.672 97.1423H167.635V98.6049H168.672ZM171.903 93.7842H173.612V100.008H171.903V93.7842Z" fill="white" style="fill:white;fill-opacity:1;"/>
<path d="M175.871 96.8363L174.162 93.7842H176.05L177.207 96.105H177.513L178.669 93.7842H180.557L178.856 96.8363L180.684 100.008H178.796L177.513 97.5676H177.207L175.923 100.008H174.035L175.871 96.8363Z" fill="white" style="fill:white;fill-opacity:1;"/>
<path d="M32.9883 105.985H34.6972V108.672L34.6375 109.769H34.7569L37.2568 105.985H39.0851V112.209H37.3762V109.523L37.4359 108.426H37.3165L34.8166 112.209H32.9883V105.985Z" fill="white" style="fill:white;fill-opacity:1;"/>
<path d="M45.6815 112.396C45.1964 112.396 44.7412 112.314 44.3233 112.142C43.9054 111.97 43.5397 111.739 43.2338 111.441C42.9278 111.142 42.689 110.791 42.5174 110.388C42.3458 109.985 42.2637 109.56 42.2637 109.105C42.2637 108.65 42.3458 108.217 42.5174 107.821C42.689 107.418 42.9278 107.068 43.2338 106.769C43.5397 106.471 43.8979 106.239 44.3233 106.068C44.7412 105.896 45.1964 105.814 45.6815 105.814C46.1665 105.814 46.6217 105.896 47.0322 106.068C47.4501 106.239 47.8083 106.471 48.1142 106.769C48.4202 107.068 48.659 107.418 48.8306 107.821C49.0022 108.224 49.0918 108.65 49.0918 109.105C49.0918 109.56 49.0022 109.993 48.8306 110.388C48.659 110.791 48.4127 111.142 48.1142 111.441C47.8083 111.739 47.4501 111.97 47.0322 112.142C46.6217 112.306 46.1665 112.396 45.6815 112.396ZM45.6815 110.933C45.9053 110.933 46.1217 110.888 46.3232 110.799C46.5247 110.709 46.6964 110.582 46.8456 110.426C46.9949 110.269 47.1143 110.075 47.1963 109.851C47.2784 109.627 47.3232 109.381 47.3232 109.097C47.3232 108.821 47.2784 108.568 47.1963 108.344C47.1143 108.12 46.9949 107.926 46.8456 107.769C46.6964 107.612 46.5172 107.486 46.3232 107.396C46.1217 107.306 45.9128 107.262 45.6815 107.262C45.4501 107.262 45.2412 107.306 45.0397 107.396C44.8382 107.486 44.6666 107.612 44.5173 107.769C44.3681 107.926 44.2487 108.12 44.1666 108.344C44.0845 108.568 44.0397 108.821 44.0397 109.097C44.0397 109.374 44.0845 109.627 44.1666 109.851C44.2487 110.075 44.3681 110.269 44.5173 110.426C44.6666 110.582 44.8457 110.709 45.0397 110.799C45.2412 110.888 45.4501 110.933 45.6815 110.933Z" fill="white" style="fill:white;fill-opacity:1;"/>
<path d="M52.8168 112.396C52.3616 112.396 51.9363 112.314 51.5407 112.142C51.1452 111.971 50.802 111.724 50.5184 111.403C50.2274 111.083 50.0035 110.695 49.8319 110.232C49.6677 109.769 49.5781 109.254 49.5781 108.68C49.5781 106.971 49.9363 105.71 50.6453 104.896C51.3542 104.083 52.384 103.672 53.7272 103.672H55.4958V105.135H53.9063C53.0407 105.135 52.3989 105.329 51.9736 105.725C51.5482 106.12 51.3169 106.657 51.287 107.329H51.3467C51.4587 107.172 51.6079 107.03 51.787 106.904C51.9437 106.799 52.1377 106.702 52.3691 106.613C52.6079 106.523 52.8915 106.478 53.2347 106.478C53.6302 106.478 54.0033 106.553 54.3466 106.695C54.6899 106.836 54.9884 107.038 55.2346 107.292C55.4884 107.545 55.6824 107.851 55.8242 108.202C55.966 108.553 56.0406 108.933 56.0406 109.351C56.0406 109.784 55.966 110.18 55.8093 110.553C55.6525 110.926 55.4361 111.247 55.16 111.515C54.8765 111.791 54.5406 112 54.1377 112.165C53.7496 112.314 53.3093 112.396 52.8168 112.396ZM52.8168 110.933C53.2496 110.933 53.6004 110.792 53.869 110.508C54.1377 110.224 54.2795 109.836 54.2795 109.351C54.2795 108.889 54.1451 108.515 53.869 108.239C53.5929 107.963 53.2422 107.821 52.8168 107.821C52.384 107.821 52.0333 107.963 51.7646 108.239C51.4885 108.515 51.3542 108.889 51.3542 109.351C51.3542 109.836 51.4885 110.224 51.7646 110.508C52.0333 110.784 52.384 110.933 52.8168 110.933Z" fill="white" style="fill:white;fill-opacity:1;"/>
<path d="M56.7852 105.986H58.4941V106.777H58.5537C58.6806 106.598 58.8448 106.433 59.0313 106.292C59.1955 106.172 59.397 106.06 59.6358 105.956C59.8746 105.851 60.1656 105.807 60.5089 105.807C60.9044 105.807 61.2775 105.881 61.6283 106.038C61.9715 106.195 62.2775 106.411 62.5387 106.695C62.7999 106.978 63.0014 107.322 63.1581 107.732C63.3073 108.142 63.3819 108.598 63.3819 109.098C63.3819 109.605 63.3073 110.06 63.1581 110.463C63.0088 110.874 62.7999 111.217 62.5387 111.5C62.2775 111.784 61.979 112.008 61.6283 112.157C61.285 112.314 60.9119 112.389 60.5089 112.389C60.1656 112.389 59.8746 112.336 59.6358 112.239C59.397 112.135 59.1955 112.023 59.0313 111.903C58.8448 111.754 58.6881 111.597 58.5537 111.418H58.4941V114.53H56.7852V105.986ZM60.0761 110.933C60.5089 110.933 60.8671 110.777 61.1656 110.456C61.4566 110.135 61.6059 109.687 61.6059 109.098C61.6059 108.516 61.4566 108.06 61.1656 107.739C60.8746 107.426 60.5089 107.262 60.0761 107.262C59.6134 107.262 59.2328 107.419 58.9343 107.739C58.6358 108.06 58.4866 108.508 58.4866 109.098C58.4866 109.687 58.6358 110.135 58.9343 110.456C59.2328 110.769 59.6134 110.933 60.0761 110.933Z" fill="white" style="fill:white;fill-opacity:1;"/>
<path d="M66.7246 112.396C66.3291 112.396 65.956 112.321 65.6052 112.164C65.262 112.008 64.956 111.791 64.6948 111.508C64.4336 111.224 64.2321 110.881 64.0754 110.471C63.9262 110.068 63.8516 109.605 63.8516 109.105C63.8516 108.597 63.9262 108.142 64.0754 107.739C64.2247 107.329 64.4336 106.986 64.6948 106.702C64.956 106.418 65.2545 106.195 65.6052 106.045C65.9485 105.889 66.3216 105.814 66.7246 105.814C67.0679 105.814 67.3589 105.866 67.5977 105.963C67.8365 106.068 68.038 106.18 68.2022 106.299C68.3887 106.448 68.5454 106.605 68.6797 106.784H68.7395V105.993H70.4484V112.217H68.7395V111.426H68.6797C68.5529 111.605 68.3887 111.769 68.2022 111.911C68.038 112.03 67.8365 112.142 67.5977 112.247C67.3589 112.344 67.0679 112.396 66.7246 112.396ZM67.15 110.933C67.6126 110.933 67.9932 110.776 68.2917 110.456C68.5902 110.135 68.7395 109.687 68.7395 109.097C68.7395 108.515 68.5902 108.06 68.2917 107.739C67.9932 107.426 67.6126 107.262 67.15 107.262C66.7171 107.262 66.3589 107.418 66.0604 107.739C65.7694 108.06 65.6202 108.508 65.6202 109.097C65.6202 109.687 65.7694 110.135 66.0604 110.456C66.3589 110.769 66.7246 110.933 67.15 110.933Z" fill="white" style="fill:white;fill-opacity:1;"/>
<path d="M74.1061 112.396C73.7703 112.396 73.4718 112.366 73.2106 112.306C72.9494 112.246 72.7106 112.164 72.5091 112.06C72.3076 111.955 72.1285 111.836 71.9867 111.709C71.8375 111.582 71.7106 111.448 71.6061 111.306C71.3599 110.978 71.2032 110.612 71.1211 110.209H72.83C72.8822 110.366 72.9569 110.5 73.0613 110.612C73.1509 110.709 73.2777 110.799 73.4419 110.881C73.6061 110.963 73.83 111 74.1061 111C74.4717 111 74.7329 110.933 74.8971 110.806C75.0613 110.679 75.1433 110.515 75.1433 110.329C75.1433 110.12 75.0687 109.955 74.9269 109.836C74.7777 109.717 74.509 109.657 74.1061 109.657H73.3151V108.433H74.0464C74.412 108.433 74.6658 108.373 74.8075 108.254C74.9493 108.135 75.0239 107.97 75.0239 107.762C75.0239 107.605 74.9419 107.463 74.7777 107.344C74.6135 107.217 74.3523 107.157 73.9867 107.157C73.7479 107.157 73.5688 107.194 73.4345 107.262C73.3001 107.329 73.1956 107.411 73.121 107.5C73.0315 107.597 72.9718 107.709 72.9494 107.829H71.2405C71.3375 107.456 71.5017 107.12 71.7405 106.829C71.8375 106.709 71.9569 106.582 72.0987 106.463C72.2405 106.344 72.4046 106.232 72.5986 106.135C72.7927 106.038 73.0091 105.963 73.2553 105.903C73.5016 105.844 73.7852 105.821 74.1061 105.821C74.5463 105.821 74.9269 105.874 75.2627 105.971C75.5911 106.068 75.8672 106.202 76.0836 106.366C76.3 106.53 76.4642 106.724 76.5687 106.933C76.6731 107.142 76.7254 107.366 76.7254 107.59C76.7254 107.859 76.6657 108.075 76.5537 108.247C76.4418 108.418 76.3149 108.545 76.1732 108.635C76.009 108.739 75.8299 108.821 75.6209 108.866V108.926C75.8448 108.985 76.0538 109.075 76.2329 109.209C76.3896 109.321 76.5314 109.478 76.6508 109.679C76.7776 109.881 76.8373 110.135 76.8373 110.455C76.8373 110.717 76.7851 110.963 76.6881 111.202C76.5836 111.441 76.4269 111.642 76.203 111.821C75.9791 112 75.6956 112.142 75.3523 112.246C75.0165 112.343 74.5986 112.396 74.1061 112.396Z" fill="white" style="fill:white;fill-opacity:1;"/>
<path d="M80.6951 112.396C80.2101 112.396 79.7549 112.314 79.337 112.142C78.9191 111.97 78.5534 111.739 78.2475 111.441C77.9415 111.142 77.7027 110.791 77.5311 110.388C77.3594 109.985 77.2773 109.56 77.2773 109.105C77.2773 108.65 77.3594 108.217 77.5311 107.821C77.7027 107.418 77.9415 107.068 78.2475 106.769C78.5534 106.471 78.9116 106.239 79.337 106.068C79.7549 105.896 80.2101 105.814 80.6951 105.814C81.1802 105.814 81.6354 105.896 82.0458 106.068C82.4637 106.239 82.8219 106.471 83.1279 106.769C83.4338 107.068 83.6726 107.418 83.8443 107.821C84.0159 108.224 84.1055 108.65 84.1055 109.105C84.1055 109.56 84.0159 109.993 83.8443 110.388C83.6726 110.791 83.4264 111.142 83.1279 111.441C82.8219 111.739 82.4637 111.97 82.0458 112.142C81.6354 112.306 81.1876 112.396 80.6951 112.396ZM80.6951 110.933C80.919 110.933 81.1354 110.888 81.3369 110.799C81.5384 110.709 81.71 110.582 81.8593 110.426C82.0085 110.269 82.1279 110.075 82.21 109.851C82.2921 109.627 82.3369 109.381 82.3369 109.097C82.3369 108.821 82.2921 108.568 82.21 108.344C82.1279 108.12 82.0085 107.926 81.8593 107.769C81.71 107.612 81.5309 107.486 81.3369 107.396C81.1354 107.306 80.9265 107.262 80.6951 107.262C80.4638 107.262 80.2549 107.306 80.0534 107.396C79.8519 107.486 79.6802 107.612 79.531 107.769C79.3817 107.926 79.2623 108.12 79.1803 108.344C79.0982 108.568 79.0534 108.821 79.0534 109.097C79.0534 109.374 79.0982 109.627 79.1803 109.851C79.2623 110.075 79.3817 110.269 79.531 110.426C79.6802 110.582 79.8593 110.709 80.0534 110.799C80.2549 110.888 80.4713 110.933 80.6951 110.933Z" fill="white" style="fill:white;fill-opacity:1;"/>
<path d="M84.8438 105.985H88.2616C88.5974 105.985 88.8884 106.023 89.1421 106.105C89.3958 106.179 89.6048 106.291 89.769 106.426C89.9331 106.567 90.06 106.724 90.1496 106.911C90.2316 107.097 90.2764 107.299 90.2764 107.508C90.2764 107.799 90.2242 108.038 90.1122 108.209C90.0003 108.381 89.8809 108.523 89.754 108.62C89.6048 108.732 89.4406 108.814 89.2391 108.851V108.911C89.4854 108.963 89.7093 109.045 89.9107 109.164C90.0749 109.276 90.2242 109.433 90.366 109.627C90.5078 109.821 90.5824 110.09 90.5824 110.433C90.5824 110.687 90.5301 110.918 90.4331 111.134C90.3287 111.351 90.1794 111.537 89.9854 111.694C89.7914 111.851 89.5451 111.978 89.2615 112.067C88.9705 112.157 88.6421 112.202 88.269 112.202H84.8512L84.8438 105.985ZM88.0153 108.366C88.2018 108.366 88.3511 108.314 88.463 108.209C88.575 108.105 88.6272 107.97 88.6272 107.821C88.6272 107.664 88.575 107.538 88.463 107.433C88.3511 107.329 88.2018 107.276 88.0153 107.276H86.5527V108.373H88.0153V108.366ZM88.1422 110.933C88.3511 110.933 88.5302 110.866 88.6645 110.739C88.8063 110.612 88.8735 110.448 88.8735 110.261C88.8735 110.075 88.8063 109.918 88.6645 109.784C88.5227 109.657 88.3511 109.59 88.1422 109.59H86.5527V110.933H88.1422Z" fill="white" style="fill:white;fill-opacity:1;"/>
<path d="M93.9336 112.396C93.5381 112.396 93.165 112.321 92.8142 112.164C92.471 112.008 92.165 111.791 91.9038 111.508C91.6426 111.224 91.4411 110.881 91.2844 110.471C91.1352 110.068 91.0605 109.605 91.0605 109.105C91.0605 108.597 91.1352 108.142 91.2844 107.739C91.4337 107.329 91.6426 106.986 91.9038 106.702C92.165 106.418 92.4635 106.195 92.8142 106.045C93.1575 105.889 93.5306 105.814 93.9336 105.814C94.2769 105.814 94.5679 105.866 94.8067 105.963C95.0455 106.068 95.247 106.18 95.4111 106.299C95.5977 106.448 95.7544 106.605 95.8887 106.784H95.9484V105.993H97.6573V112.217H95.9484V111.426H95.8887C95.7619 111.605 95.5977 111.769 95.4111 111.911C95.247 112.03 95.0455 112.142 94.8067 112.247C94.5679 112.344 94.2769 112.396 93.9336 112.396ZM94.3664 110.933C94.8291 110.933 95.2097 110.776 95.5081 110.456C95.8066 110.135 95.9559 109.687 95.9559 109.097C95.9559 108.515 95.8066 108.06 95.5081 107.739C95.2097 107.426 94.8291 107.262 94.3664 107.262C93.9336 107.262 93.5754 107.418 93.2769 107.739C92.9859 108.06 92.8366 108.508 92.8366 109.097C92.8366 109.687 92.9859 110.135 93.2769 110.456C93.5679 110.769 93.9336 110.933 94.3664 110.933Z" fill="white" style="fill:white;fill-opacity:1;"/>
<path d="M100.215 107.455H98.1406V105.993H103.999V107.455H101.924V112.216H100.215V107.455Z" fill="white" style="fill:white;fill-opacity:1;"/>
<path d="M107.478 112.396C107.007 112.396 106.567 112.314 106.157 112.142C105.746 111.97 105.388 111.739 105.09 111.441C104.791 111.142 104.552 110.791 104.381 110.388C104.209 109.985 104.127 109.56 104.127 109.105C104.127 108.65 104.209 108.217 104.381 107.821C104.552 107.418 104.791 107.068 105.09 106.769C105.388 106.471 105.746 106.239 106.157 106.068C106.567 105.896 107.007 105.814 107.478 105.814C107.963 105.814 108.41 105.896 108.813 106.068C109.216 106.239 109.567 106.478 109.858 106.777C110.149 107.075 110.373 107.426 110.537 107.829C110.694 108.224 110.776 108.657 110.776 109.112V109.478H105.896C105.925 109.672 105.993 109.859 106.082 110.038C106.179 110.217 106.291 110.374 106.433 110.508C106.575 110.642 106.739 110.747 106.918 110.829C107.097 110.903 107.284 110.948 107.478 110.948C107.754 110.948 107.978 110.911 108.157 110.829C108.328 110.754 108.478 110.665 108.589 110.575C108.709 110.471 108.806 110.351 108.881 110.209H110.709C110.582 110.62 110.373 110.985 110.097 111.306C109.977 111.448 109.836 111.582 109.672 111.709C109.507 111.836 109.321 111.956 109.112 112.06C108.903 112.164 108.657 112.247 108.388 112.306C108.119 112.366 107.813 112.396 107.478 112.396ZM108.94 108.426C108.91 108.269 108.851 108.127 108.769 107.986C108.686 107.844 108.582 107.724 108.455 107.62C108.328 107.515 108.179 107.426 108.015 107.366C107.851 107.299 107.664 107.269 107.47 107.269C107.075 107.269 106.739 107.389 106.478 107.62C106.216 107.851 106.037 108.12 105.948 108.433H108.94V108.426Z" fill="white" style="fill:white;fill-opacity:1;"/>
<path d="M112.546 105.985H115.844L117.493 112.209H115.784L114.501 107.448H113.889L112.605 112.209H110.896L112.546 105.985Z" fill="white" style="fill:white;fill-opacity:1;"/>
<path d="M117.91 105.985H119.619V107.941H121.022C121.403 107.941 121.753 108 122.059 108.112C122.365 108.224 122.634 108.381 122.843 108.575C123.059 108.769 123.223 108.993 123.343 109.254C123.462 109.508 123.522 109.784 123.522 110.075C123.522 110.366 123.462 110.642 123.343 110.896C123.223 111.149 123.059 111.381 122.843 111.575C122.626 111.769 122.365 111.925 122.059 112.037C121.753 112.149 121.403 112.209 121.022 112.209H117.91V105.985ZM120.903 110.806C121.179 110.806 121.388 110.739 121.537 110.597C121.686 110.455 121.753 110.284 121.753 110.075C121.753 109.866 121.679 109.687 121.537 109.552C121.388 109.411 121.179 109.343 120.903 109.343H119.619V110.806H120.903Z" fill="white" style="fill:white;fill-opacity:1;"/>
<path d="M124.193 105.985H125.902V108.306H128.529V105.985H130.238V112.209H128.529V109.769H125.902V112.209H124.193V105.985Z" fill="white" style="fill:white;fill-opacity:1;"/>
<path d="M131.334 105.985H133.043V107.941H134.2C134.58 107.941 134.931 108 135.237 108.112C135.543 108.224 135.811 108.381 136.02 108.575C136.237 108.769 136.401 108.993 136.52 109.254C136.64 109.508 136.699 109.784 136.699 110.075C136.699 110.366 136.64 110.642 136.52 110.896C136.401 111.149 136.237 111.381 136.02 111.575C135.804 111.769 135.543 111.925 135.237 112.037C134.931 112.149 134.58 112.209 134.2 112.209H131.334V105.985ZM134.08 110.806C134.356 110.806 134.565 110.739 134.714 110.597C134.864 110.455 134.931 110.284 134.931 110.075C134.931 109.866 134.856 109.687 134.714 109.552C134.565 109.411 134.356 109.343 134.08 109.343H133.043V110.806H134.08ZM137.311 105.985H139.02V112.209H137.311V105.985Z" fill="white" style="fill:white;fill-opacity:1;"/>
<path d="M141.275 109.037L139.566 105.985H141.454L142.611 108.306H142.917L144.073 105.985H145.961L144.252 109.037L146.081 112.209H144.193L142.909 109.769H142.603L141.32 112.209H139.432L141.275 109.037Z" fill="white" style="fill:white;fill-opacity:1;"/>
<path d="M149.699 105.985H155.677V112.209H153.968V107.448H151.408V112.209H149.699V105.985Z" fill="white" style="fill:white;fill-opacity:1;"/>
<path d="M156.775 105.986H158.484V106.777H158.544C158.671 106.598 158.835 106.433 159.022 106.292C159.186 106.172 159.387 106.06 159.626 105.956C159.865 105.851 160.156 105.807 160.499 105.807C160.895 105.807 161.268 105.881 161.619 106.038C161.962 106.195 162.268 106.411 162.529 106.695C162.79 106.978 162.992 107.322 163.148 107.732C163.298 108.142 163.372 108.598 163.372 109.098C163.372 109.605 163.298 110.06 163.148 110.463C162.999 110.874 162.79 111.217 162.529 111.5C162.268 111.784 161.969 112.008 161.619 112.157C161.275 112.314 160.902 112.389 160.499 112.389C160.156 112.389 159.865 112.336 159.626 112.239C159.387 112.135 159.186 112.023 159.022 111.903C158.835 111.754 158.678 111.597 158.544 111.418H158.484V114.53H156.775V105.986ZM160.066 110.933C160.499 110.933 160.857 110.777 161.156 110.456C161.447 110.135 161.596 109.687 161.596 109.098C161.596 108.516 161.447 108.06 161.156 107.739C160.865 107.426 160.499 107.262 160.066 107.262C159.604 107.262 159.223 107.419 158.925 107.739C158.626 108.06 158.477 108.508 158.477 109.098C158.477 109.687 158.626 110.135 158.925 110.456C159.223 110.769 159.604 110.933 160.066 110.933Z" fill="white" style="fill:white;fill-opacity:1;"/>
<path d="M167.205 112.396C166.72 112.396 166.265 112.314 165.847 112.142C165.429 111.97 165.063 111.739 164.757 111.441C164.451 111.142 164.212 110.791 164.041 110.388C163.869 109.985 163.787 109.56 163.787 109.105C163.787 108.65 163.869 108.217 164.041 107.821C164.212 107.418 164.451 107.068 164.757 106.769C165.063 106.471 165.421 106.239 165.847 106.068C166.265 105.896 166.72 105.814 167.205 105.814C167.69 105.814 168.145 105.896 168.556 106.068C168.974 106.239 169.332 106.471 169.638 106.769C169.944 107.068 170.182 107.418 170.354 107.821C170.526 108.224 170.615 108.65 170.615 109.105C170.615 109.56 170.526 109.993 170.354 110.388C170.182 110.791 169.936 111.142 169.638 111.441C169.332 111.739 168.974 111.97 168.556 112.142C168.145 112.306 167.69 112.396 167.205 112.396ZM167.205 110.933C167.429 110.933 167.645 110.888 167.847 110.799C168.048 110.709 168.22 110.582 168.369 110.426C168.518 110.269 168.638 110.075 168.72 109.851C168.802 109.627 168.847 109.381 168.847 109.097C168.847 108.821 168.802 108.568 168.72 108.344C168.638 108.12 168.518 107.926 168.369 107.769C168.22 107.612 168.041 107.486 167.847 107.396C167.645 107.306 167.436 107.262 167.205 107.262C166.974 107.262 166.765 107.306 166.563 107.396C166.362 107.486 166.19 107.612 166.041 107.769C165.892 107.926 165.772 108.12 165.69 108.344C165.608 108.568 165.563 108.821 165.563 109.097C165.563 109.374 165.608 109.627 165.69 109.851C165.772 110.075 165.892 110.269 166.041 110.426C166.19 110.582 166.369 110.709 166.563 110.799C166.765 110.888 166.974 110.933 167.205 110.933Z" fill="white" style="fill:white;fill-opacity:1;"/>
<path d="M171.357 105.985H176.059V107.448H173.066V112.209H171.357V105.985Z" fill="white" style="fill:white;fill-opacity:1;"/>
<path d="M176.602 105.986H178.31V106.777H178.37C178.497 106.598 178.661 106.433 178.848 106.292C179.012 106.172 179.213 106.06 179.452 105.956C179.691 105.851 179.982 105.807 180.325 105.807C180.721 105.807 181.094 105.881 181.445 106.038C181.788 106.195 182.094 106.411 182.355 106.695C182.616 106.978 182.818 107.322 182.974 107.732C183.124 108.142 183.198 108.598 183.198 109.098C183.198 109.605 183.124 110.06 182.974 110.463C182.825 110.874 182.616 111.217 182.355 111.5C182.094 111.784 181.795 112.008 181.445 112.157C181.101 112.314 180.728 112.389 180.325 112.389C179.982 112.389 179.691 112.336 179.452 112.239C179.213 112.135 179.012 112.023 178.848 111.903C178.661 111.754 178.504 111.597 178.37 111.418H178.31V114.53H176.602V105.986ZM179.892 110.933C180.325 110.933 180.684 110.777 180.982 110.456C181.273 110.135 181.422 109.687 181.422 109.098C181.422 108.516 181.273 108.06 180.982 107.739C180.691 107.426 180.325 107.262 179.892 107.262C179.43 107.262 179.049 107.419 178.751 107.739C178.452 108.06 178.303 108.508 178.303 109.098C178.303 109.687 178.452 110.135 178.751 110.456C179.049 110.769 179.43 110.933 179.892 110.933Z" fill="white" style="fill:white;fill-opacity:1;"/>
<path d="M186.541 112.396C186.145 112.396 185.772 112.321 185.422 112.164C185.078 112.008 184.772 111.791 184.511 111.508C184.25 111.224 184.049 110.881 183.892 110.471C183.743 110.068 183.668 109.605 183.668 109.105C183.668 108.597 183.743 108.142 183.892 107.739C184.041 107.329 184.25 106.986 184.511 106.702C184.772 106.418 185.071 106.195 185.422 106.045C185.765 105.889 186.138 105.814 186.541 105.814C186.884 105.814 187.175 105.866 187.414 105.963C187.653 106.068 187.854 106.18 188.019 106.299C188.205 106.448 188.362 106.605 188.496 106.784H188.556V105.993H190.265V112.217H188.556V111.426H188.496C188.369 111.605 188.205 111.769 188.019 111.911C187.854 112.03 187.653 112.142 187.414 112.247C187.175 112.344 186.884 112.396 186.541 112.396ZM186.974 110.933C187.436 110.933 187.817 110.776 188.116 110.456C188.414 110.135 188.563 109.687 188.563 109.097C188.563 108.515 188.414 108.06 188.116 107.739C187.817 107.426 187.436 107.262 186.974 107.262C186.541 107.262 186.183 107.418 185.884 107.739C185.593 108.06 185.444 108.508 185.444 109.097C185.444 109.687 185.593 110.135 185.884 110.456C186.175 110.769 186.541 110.933 186.974 110.933Z" fill="white" style="fill:white;fill-opacity:1;"/>
<path d="M191.361 105.985H193.682L195.145 109.343H195.331L196.794 105.985H199.115V112.209H197.406V109.097L197.466 108H197.406L196.063 111.052H194.413L193.07 108H193.011L193.07 109.097V112.209H191.361V105.985Z" fill="white" style="fill:white;fill-opacity:1;"/>
<path d="M200.215 105.985H202.535L203.998 109.343H204.185L205.647 105.985H207.961V112.209H206.252V109.097L206.311 108H206.252L204.908 111.052H203.259L201.916 108H201.856L201.916 109.097V112.209H200.207L200.215 105.985Z" fill="white" style="fill:white;fill-opacity:1;"/>
</g>
<defs>
<clipPath id="clip0_170_4701">
<rect x="0.699219" width="244.603" height="172" rx="27.6583" fill="white" style="fill:white;fill-opacity:1;"/>
</clipPath>
<clipPath id="clip1_170_4701">
<rect width="399.74" height="28.6167" fill="white" style="fill:white;fill-opacity:1;" transform="translate(32.6797 57.8306)"/>
</clipPath>
</defs>
</svg>
