<svg width="33" height="32" viewBox="0 0 33 32" fill="none" xmlns="http://www.w3.org/2000/svg">
<rect x="0.199219" width="32" height="32" rx="8" fill="white" fill-opacity="0.08" style="fill:white;fill-opacity:0.08;"/>
<path d="M17.0031 22C10.8532 22 7.34538 17.8709 7.19922 11H10.2798C10.381 16.043 12.6521 18.1792 14.4509 18.6196V11H17.3516V15.3493C19.128 15.1622 20.9943 13.1802 21.624 11H24.5246C24.2874 12.1307 23.8145 13.2013 23.1354 14.1448C22.4564 15.0883 21.5859 15.8845 20.5784 16.4835C21.703 17.0308 22.6964 17.8055 23.4929 18.7564C24.2894 19.7073 24.871 20.8128 25.1992 22H22.0062C21.7116 20.9688 21.1127 20.0458 20.2847 19.3465C19.4567 18.6472 18.4364 18.2029 17.3516 18.0691V22H17.0031Z" fill="white" style="fill:white;fill-opacity:1;"/>
</svg>
