<svg width="33" height="32" viewBox="0 0 33 32" fill="none" xmlns="http://www.w3.org/2000/svg">
<rect x="0.798828" width="32" height="32" rx="8" fill="white" fill-opacity="0.08" style="fill:white;fill-opacity:0.08;"/>
<path fill-rule="evenodd" clip-rule="evenodd" d="M9.61826 9.21941C8.2036 9.2881 7.06724 10.3736 6.97543 11.7588C6.88747 13.0858 6.80078 14.7188 6.80078 16C6.80078 17.2812 6.88747 18.9142 6.97543 20.2412C7.06724 21.6264 8.2036 22.7119 9.61826 22.7806C11.6668 22.88 14.5947 23 16.8008 23C19.0069 23 21.9348 22.88 23.9833 22.7806C25.398 22.7119 26.5343 21.6264 26.6261 20.2412C26.7141 18.9142 26.8008 17.2812 26.8008 16C26.8008 14.7188 26.7141 13.0858 26.6261 11.7588C26.5343 10.3736 25.398 9.2881 23.9833 9.21941C21.9348 9.11995 19.0069 9 16.8008 9C14.5947 9 11.6668 9.11995 9.61826 9.21941ZM20.8008 16L14.8008 19V13L20.8008 16Z" fill="white" style="fill:white;fill-opacity:1;"/>
</svg>
